<?xml version="1.0" encoding="utf-8" standalone="no"?>
<!DOCTYPE svg PUBLIC "-//W3C//DTD SVG 1.1//EN"
  "http://www.w3.org/Graphics/SVG/1.1/DTD/svg11.dtd">
<svg xmlns:xlink="http://www.w3.org/1999/xlink" width="720pt" height="288pt" viewBox="0 0 720 288" xmlns="http://www.w3.org/2000/svg" version="1.1">
 <metadata>
  <rdf:RDF xmlns:dc="http://purl.org/dc/elements/1.1/" xmlns:cc="http://creativecommons.org/ns#" xmlns:rdf="http://www.w3.org/1999/02/22-rdf-syntax-ns#">
   <cc:Work>
    <dc:type rdf:resource="http://purl.org/dc/dcmitype/StillImage"/>
    <dc:date>2024-08-16T15:23:25.220736</dc:date>
    <dc:format>image/svg+xml</dc:format>
    <dc:creator>
     <cc:Agent>
      <dc:title>Matplotlib v3.8.3, https://matplotlib.org/</dc:title>
     </cc:Agent>
    </dc:creator>
   </cc:Work>
  </rdf:RDF>
 </metadata>
 <defs>
  <style type="text/css">*{stroke-linejoin: round; stroke-linecap: butt}</style>
 </defs>
 <g id="figure_1">
  <g id="patch_1">
   <path d="M 0 288 
L 720 288 
L 720 0 
L 0 0 
z
" style="fill: #ffffff"/>
  </g>
  <g id="axes_1">
   <g id="patch_2">
    <path d="M 39.408365 251.740072 
L 351.050781 251.740072 
L 351.050781 21.917584 
L 39.408365 21.917584 
z
" style="fill: #ffffff"/>
   </g>
   <g id="patch_3">
    <path d="M 53.573929 251.740072 
L 57.67989 251.740072 
L 57.67989 166.09194 
L 53.573929 166.09194 
z
" clip-path="url(#pfc4001f680)" style="fill: #00bfff"/>
   </g>
   <g id="patch_4">
    <path d="M 61.785851 251.740072 
L 65.891811 251.740072 
L 65.891811 128.026103 
L 61.785851 128.026103 
z
" clip-path="url(#pfc4001f680)" style="fill: #00bfff"/>
   </g>
   <g id="patch_5">
    <path d="M 69.997772 251.740072 
L 74.103733 251.740072 
L 74.103733 156.575481 
L 69.997772 156.575481 
z
" clip-path="url(#pfc4001f680)" style="fill: #00bfff"/>
   </g>
   <g id="patch_6">
    <path d="M 78.209694 251.740072 
L 82.315654 251.740072 
L 82.315654 185.124858 
L 78.209694 185.124858 
z
" clip-path="url(#pfc4001f680)" style="fill: #00bfff"/>
   </g>
   <g id="patch_7">
    <path d="M 86.421615 251.740072 
L 90.527576 251.740072 
L 90.527576 166.09194 
L 86.421615 166.09194 
z
" clip-path="url(#pfc4001f680)" style="fill: #00bfff"/>
   </g>
   <g id="patch_8">
    <path d="M 94.633536 251.740072 
L 98.739497 251.740072 
L 98.739497 80.443808 
L 94.633536 80.443808 
z
" clip-path="url(#pfc4001f680)" style="fill: #00bfff"/>
   </g>
   <g id="patch_9">
    <path d="M 102.845458 251.740072 
L 106.951418 251.740072 
L 106.951418 147.059022 
L 102.845458 147.059022 
z
" clip-path="url(#pfc4001f680)" style="fill: #00bfff"/>
   </g>
   <g id="patch_10">
    <path d="M 111.057379 251.740072 
L 115.16334 251.740072 
L 115.16334 118.509644 
L 111.057379 118.509644 
z
" clip-path="url(#pfc4001f680)" style="fill: #00bfff"/>
   </g>
   <g id="patch_11">
    <path d="M 119.2693 251.740072 
L 123.375261 251.740072 
L 123.375261 32.861512 
L 119.2693 32.861512 
z
" clip-path="url(#pfc4001f680)" style="fill: #00bfff"/>
   </g>
   <g id="patch_12">
    <path d="M 127.481222 251.740072 
L 131.587182 251.740072 
L 131.587182 70.927348 
L 127.481222 70.927348 
z
" clip-path="url(#pfc4001f680)" style="fill: #00bfff"/>
   </g>
   <g id="patch_13">
    <path d="M 135.693143 251.740072 
L 139.799104 251.740072 
L 139.799104 137.542563 
L 135.693143 137.542563 
z
" clip-path="url(#pfc4001f680)" style="fill: #00bfff"/>
   </g>
   <g id="patch_14">
    <path d="M 143.905065 251.740072 
L 148.011025 251.740072 
L 148.011025 118.509644 
L 143.905065 118.509644 
z
" clip-path="url(#pfc4001f680)" style="fill: #00bfff"/>
   </g>
   <g id="patch_15">
    <path d="M 152.116986 251.740072 
L 156.222947 251.740072 
L 156.222947 51.89443 
L 152.116986 51.89443 
z
" clip-path="url(#pfc4001f680)" style="fill: #00bfff"/>
   </g>
   <g id="patch_16">
    <path d="M 160.328907 251.740072 
L 164.434868 251.740072 
L 164.434868 80.443808 
L 160.328907 80.443808 
z
" clip-path="url(#pfc4001f680)" style="fill: #00bfff"/>
   </g>
   <g id="patch_17">
    <path d="M 168.540829 251.740072 
L 172.646789 251.740072 
L 172.646789 108.993185 
L 168.540829 108.993185 
z
" clip-path="url(#pfc4001f680)" style="fill: #00bfff"/>
   </g>
   <g id="patch_18">
    <path d="M 176.75275 251.740072 
L 180.858711 251.740072 
L 180.858711 80.443808 
L 176.75275 80.443808 
z
" clip-path="url(#pfc4001f680)" style="fill: #00bfff"/>
   </g>
   <g id="patch_19">
    <path d="M 184.964671 251.740072 
L 189.070632 251.740072 
L 189.070632 80.443808 
L 184.964671 80.443808 
z
" clip-path="url(#pfc4001f680)" style="fill: #00bfff"/>
   </g>
   <g id="patch_20">
    <path d="M 193.176593 251.740072 
L 197.282553 251.740072 
L 197.282553 108.993185 
L 193.176593 108.993185 
z
" clip-path="url(#pfc4001f680)" style="fill: #00bfff"/>
   </g>
   <g id="patch_21">
    <path d="M 201.388514 251.740072 
L 205.494475 251.740072 
L 205.494475 156.575481 
L 201.388514 156.575481 
z
" clip-path="url(#pfc4001f680)" style="fill: #00bfff"/>
   </g>
   <g id="patch_22">
    <path d="M 209.600436 251.740072 
L 213.706396 251.740072 
L 213.706396 175.608399 
L 209.600436 175.608399 
z
" clip-path="url(#pfc4001f680)" style="fill: #00bfff"/>
   </g>
   <g id="patch_23">
    <path d="M 217.812357 251.740072 
L 221.918318 251.740072 
L 221.918318 61.410889 
L 217.812357 61.410889 
z
" clip-path="url(#pfc4001f680)" style="fill: #00bfff"/>
   </g>
   <g id="patch_24">
    <path d="M 226.024278 251.740072 
L 230.130239 251.740072 
L 230.130239 137.542563 
L 226.024278 137.542563 
z
" clip-path="url(#pfc4001f680)" style="fill: #00bfff"/>
   </g>
   <g id="patch_25">
    <path d="M 234.2362 251.740072 
L 238.34216 251.740072 
L 238.34216 99.476726 
L 234.2362 99.476726 
z
" clip-path="url(#pfc4001f680)" style="fill: #00bfff"/>
   </g>
   <g id="patch_26">
    <path d="M 242.448121 251.740072 
L 246.554082 251.740072 
L 246.554082 156.575481 
L 242.448121 156.575481 
z
" clip-path="url(#pfc4001f680)" style="fill: #00bfff"/>
   </g>
   <g id="patch_27">
    <path d="M 250.660042 251.740072 
L 254.766003 251.740072 
L 254.766003 156.575481 
L 250.660042 156.575481 
z
" clip-path="url(#pfc4001f680)" style="fill: #00bfff"/>
   </g>
   <g id="patch_28">
    <path d="M 258.871964 251.740072 
L 262.977924 251.740072 
L 262.977924 156.575481 
L 258.871964 156.575481 
z
" clip-path="url(#pfc4001f680)" style="fill: #00bfff"/>
   </g>
   <g id="patch_29">
    <path d="M 267.083885 251.740072 
L 271.189846 251.740072 
L 271.189846 156.575481 
L 267.083885 156.575481 
z
" clip-path="url(#pfc4001f680)" style="fill: #00bfff"/>
   </g>
   <g id="patch_30">
    <path d="M 275.295807 251.740072 
L 279.401767 251.740072 
L 279.401767 185.124858 
L 275.295807 185.124858 
z
" clip-path="url(#pfc4001f680)" style="fill: #00bfff"/>
   </g>
   <g id="patch_31">
    <path d="M 283.507728 251.740072 
L 287.613689 251.740072 
L 287.613689 166.09194 
L 283.507728 166.09194 
z
" clip-path="url(#pfc4001f680)" style="fill: #00bfff"/>
   </g>
   <g id="patch_32">
    <path d="M 291.719649 251.740072 
L 295.82561 251.740072 
L 295.82561 156.575481 
L 291.719649 156.575481 
z
" clip-path="url(#pfc4001f680)" style="fill: #00bfff"/>
   </g>
   <g id="patch_33">
    <path d="M 299.931571 251.740072 
L 304.037531 251.740072 
L 304.037531 128.026103 
L 299.931571 128.026103 
z
" clip-path="url(#pfc4001f680)" style="fill: #00bfff"/>
   </g>
   <g id="patch_34">
    <path d="M 308.143492 251.740072 
L 312.249453 251.740072 
L 312.249453 108.993185 
L 308.143492 108.993185 
z
" clip-path="url(#pfc4001f680)" style="fill: #00bfff"/>
   </g>
   <g id="patch_35">
    <path d="M 316.355413 251.740072 
L 320.461374 251.740072 
L 320.461374 118.509644 
L 316.355413 118.509644 
z
" clip-path="url(#pfc4001f680)" style="fill: #00bfff"/>
   </g>
   <g id="patch_36">
    <path d="M 324.567335 251.740072 
L 328.673295 251.740072 
L 328.673295 99.476726 
L 324.567335 99.476726 
z
" clip-path="url(#pfc4001f680)" style="fill: #00bfff"/>
   </g>
   <g id="patch_37">
    <path d="M 332.779256 251.740072 
L 336.885217 251.740072 
L 336.885217 137.542563 
L 332.779256 137.542563 
z
" clip-path="url(#pfc4001f680)" style="fill: #00bfff"/>
   </g>
   <g id="matplotlib.axis_1">
    <g id="xtick_1">
     <g id="line2d_1">
      <defs>
       <path id="m759538961d" d="M 0 0 
L 0 3.5 
" style="stroke: #000000; stroke-width: 0.8"/>
      </defs>
      <g>
       <use xlink:href="#m759538961d" x="47.414988" y="251.740072" style="stroke: #000000; stroke-width: 0.8"/>
      </g>
     </g>
     <g id="text_1">
      <!-- 0 -->
      <g transform="translate(44.233738 266.33851) scale(0.1 -0.1)">
       <defs>
        <path id="DejaVuSans-30" d="M 2034 4250 
Q 1547 4250 1301 3770 
Q 1056 3291 1056 2328 
Q 1056 1369 1301 889 
Q 1547 409 2034 409 
Q 2525 409 2770 889 
Q 3016 1369 3016 2328 
Q 3016 3291 2770 3770 
Q 2525 4250 2034 4250 
z
M 2034 4750 
Q 2819 4750 3233 4129 
Q 3647 3509 3647 2328 
Q 3647 1150 3233 529 
Q 2819 -91 2034 -91 
Q 1250 -91 836 529 
Q 422 1150 422 2328 
Q 422 3509 836 4129 
Q 1250 4750 2034 4750 
z
" transform="scale(0.015625)"/>
       </defs>
       <use xlink:href="#DejaVuSans-30"/>
      </g>
     </g>
    </g>
    <g id="xtick_2">
     <g id="line2d_2">
      <g>
       <use xlink:href="#m759538961d" x="88.474595" y="251.740072" style="stroke: #000000; stroke-width: 0.8"/>
      </g>
     </g>
     <g id="text_2">
      <!-- 1 -->
      <g transform="translate(85.293345 266.33851) scale(0.1 -0.1)">
       <defs>
        <path id="DejaVuSans-31" d="M 794 531 
L 1825 531 
L 1825 4091 
L 703 3866 
L 703 4441 
L 1819 4666 
L 2450 4666 
L 2450 531 
L 3481 531 
L 3481 0 
L 794 0 
L 794 531 
z
" transform="scale(0.015625)"/>
       </defs>
       <use xlink:href="#DejaVuSans-31"/>
      </g>
     </g>
    </g>
    <g id="xtick_3">
     <g id="line2d_3">
      <g>
       <use xlink:href="#m759538961d" x="129.534202" y="251.740072" style="stroke: #000000; stroke-width: 0.8"/>
      </g>
     </g>
     <g id="text_3">
      <!-- 2 -->
      <g transform="translate(126.352952 266.33851) scale(0.1 -0.1)">
       <defs>
        <path id="DejaVuSans-32" d="M 1228 531 
L 3431 531 
L 3431 0 
L 469 0 
L 469 531 
Q 828 903 1448 1529 
Q 2069 2156 2228 2338 
Q 2531 2678 2651 2914 
Q 2772 3150 2772 3378 
Q 2772 3750 2511 3984 
Q 2250 4219 1831 4219 
Q 1534 4219 1204 4116 
Q 875 4013 500 3803 
L 500 4441 
Q 881 4594 1212 4672 
Q 1544 4750 1819 4750 
Q 2544 4750 2975 4387 
Q 3406 4025 3406 3419 
Q 3406 3131 3298 2873 
Q 3191 2616 2906 2266 
Q 2828 2175 2409 1742 
Q 1991 1309 1228 531 
z
" transform="scale(0.015625)"/>
       </defs>
       <use xlink:href="#DejaVuSans-32"/>
      </g>
     </g>
    </g>
    <g id="xtick_4">
     <g id="line2d_4">
      <g>
       <use xlink:href="#m759538961d" x="170.593809" y="251.740072" style="stroke: #000000; stroke-width: 0.8"/>
      </g>
     </g>
     <g id="text_4">
      <!-- 3 -->
      <g transform="translate(167.412559 266.33851) scale(0.1 -0.1)">
       <defs>
        <path id="DejaVuSans-33" d="M 2597 2516 
Q 3050 2419 3304 2112 
Q 3559 1806 3559 1356 
Q 3559 666 3084 287 
Q 2609 -91 1734 -91 
Q 1441 -91 1130 -33 
Q 819 25 488 141 
L 488 750 
Q 750 597 1062 519 
Q 1375 441 1716 441 
Q 2309 441 2620 675 
Q 2931 909 2931 1356 
Q 2931 1769 2642 2001 
Q 2353 2234 1838 2234 
L 1294 2234 
L 1294 2753 
L 1863 2753 
Q 2328 2753 2575 2939 
Q 2822 3125 2822 3475 
Q 2822 3834 2567 4026 
Q 2313 4219 1838 4219 
Q 1578 4219 1281 4162 
Q 984 4106 628 3988 
L 628 4550 
Q 988 4650 1302 4700 
Q 1616 4750 1894 4750 
Q 2613 4750 3031 4423 
Q 3450 4097 3450 3541 
Q 3450 3153 3228 2886 
Q 3006 2619 2597 2516 
z
" transform="scale(0.015625)"/>
       </defs>
       <use xlink:href="#DejaVuSans-33"/>
      </g>
     </g>
    </g>
    <g id="xtick_5">
     <g id="line2d_5">
      <g>
       <use xlink:href="#m759538961d" x="211.653416" y="251.740072" style="stroke: #000000; stroke-width: 0.8"/>
      </g>
     </g>
     <g id="text_5">
      <!-- 4 -->
      <g transform="translate(208.472166 266.33851) scale(0.1 -0.1)">
       <defs>
        <path id="DejaVuSans-34" d="M 2419 4116 
L 825 1625 
L 2419 1625 
L 2419 4116 
z
M 2253 4666 
L 3047 4666 
L 3047 1625 
L 3713 1625 
L 3713 1100 
L 3047 1100 
L 3047 0 
L 2419 0 
L 2419 1100 
L 313 1100 
L 313 1709 
L 2253 4666 
z
" transform="scale(0.015625)"/>
       </defs>
       <use xlink:href="#DejaVuSans-34"/>
      </g>
     </g>
    </g>
    <g id="xtick_6">
     <g id="line2d_6">
      <g>
       <use xlink:href="#m759538961d" x="252.713023" y="251.740072" style="stroke: #000000; stroke-width: 0.8"/>
      </g>
     </g>
     <g id="text_6">
      <!-- 5 -->
      <g transform="translate(249.531773 266.33851) scale(0.1 -0.1)">
       <defs>
        <path id="DejaVuSans-35" d="M 691 4666 
L 3169 4666 
L 3169 4134 
L 1269 4134 
L 1269 2991 
Q 1406 3038 1543 3061 
Q 1681 3084 1819 3084 
Q 2600 3084 3056 2656 
Q 3513 2228 3513 1497 
Q 3513 744 3044 326 
Q 2575 -91 1722 -91 
Q 1428 -91 1123 -41 
Q 819 9 494 109 
L 494 744 
Q 775 591 1075 516 
Q 1375 441 1709 441 
Q 2250 441 2565 725 
Q 2881 1009 2881 1497 
Q 2881 1984 2565 2268 
Q 2250 2553 1709 2553 
Q 1456 2553 1204 2497 
Q 953 2441 691 2322 
L 691 4666 
z
" transform="scale(0.015625)"/>
       </defs>
       <use xlink:href="#DejaVuSans-35"/>
      </g>
     </g>
    </g>
    <g id="xtick_7">
     <g id="line2d_7">
      <g>
       <use xlink:href="#m759538961d" x="293.77263" y="251.740072" style="stroke: #000000; stroke-width: 0.8"/>
      </g>
     </g>
     <g id="text_7">
      <!-- 6 -->
      <g transform="translate(290.59138 266.33851) scale(0.1 -0.1)">
       <defs>
        <path id="DejaVuSans-36" d="M 2113 2584 
Q 1688 2584 1439 2293 
Q 1191 2003 1191 1497 
Q 1191 994 1439 701 
Q 1688 409 2113 409 
Q 2538 409 2786 701 
Q 3034 994 3034 1497 
Q 3034 2003 2786 2293 
Q 2538 2584 2113 2584 
z
M 3366 4563 
L 3366 3988 
Q 3128 4100 2886 4159 
Q 2644 4219 2406 4219 
Q 1781 4219 1451 3797 
Q 1122 3375 1075 2522 
Q 1259 2794 1537 2939 
Q 1816 3084 2150 3084 
Q 2853 3084 3261 2657 
Q 3669 2231 3669 1497 
Q 3669 778 3244 343 
Q 2819 -91 2113 -91 
Q 1303 -91 875 529 
Q 447 1150 447 2328 
Q 447 3434 972 4092 
Q 1497 4750 2381 4750 
Q 2619 4750 2861 4703 
Q 3103 4656 3366 4563 
z
" transform="scale(0.015625)"/>
       </defs>
       <use xlink:href="#DejaVuSans-36"/>
      </g>
     </g>
    </g>
    <g id="xtick_8">
     <g id="line2d_8">
      <g>
       <use xlink:href="#m759538961d" x="334.832237" y="251.740072" style="stroke: #000000; stroke-width: 0.8"/>
      </g>
     </g>
     <g id="text_8">
      <!-- 7 -->
      <g transform="translate(331.650987 266.33851) scale(0.1 -0.1)">
       <defs>
        <path id="DejaVuSans-37" d="M 525 4666 
L 3525 4666 
L 3525 4397 
L 1831 0 
L 1172 0 
L 2766 4134 
L 525 4134 
L 525 4666 
z
" transform="scale(0.015625)"/>
       </defs>
       <use xlink:href="#DejaVuSans-37"/>
      </g>
     </g>
    </g>
    <g id="text_9">
     <!-- Mutation rate ($c$) -->
     <g transform="translate(133.024573 282.296166) scale(0.13 -0.13)">
      <defs>
       <path id="DejaVuSans-Bold-4d" d="M 588 4666 
L 2119 4666 
L 3181 2169 
L 4250 4666 
L 5778 4666 
L 5778 0 
L 4641 0 
L 4641 3413 
L 3566 897 
L 2803 897 
L 1728 3413 
L 1728 0 
L 588 0 
L 588 4666 
z
" transform="scale(0.015625)"/>
       <path id="DejaVuSans-Bold-75" d="M 500 1363 
L 500 3500 
L 1625 3500 
L 1625 3150 
Q 1625 2866 1622 2436 
Q 1619 2006 1619 1863 
Q 1619 1441 1641 1255 
Q 1663 1069 1716 984 
Q 1784 875 1895 815 
Q 2006 756 2150 756 
Q 2500 756 2700 1025 
Q 2900 1294 2900 1772 
L 2900 3500 
L 4019 3500 
L 4019 0 
L 2900 0 
L 2900 506 
Q 2647 200 2364 54 
Q 2081 -91 1741 -91 
Q 1134 -91 817 281 
Q 500 653 500 1363 
z
" transform="scale(0.015625)"/>
       <path id="DejaVuSans-Bold-74" d="M 1759 4494 
L 1759 3500 
L 2913 3500 
L 2913 2700 
L 1759 2700 
L 1759 1216 
Q 1759 972 1856 886 
Q 1953 800 2241 800 
L 2816 800 
L 2816 0 
L 1856 0 
Q 1194 0 917 276 
Q 641 553 641 1216 
L 641 2700 
L 84 2700 
L 84 3500 
L 641 3500 
L 641 4494 
L 1759 4494 
z
" transform="scale(0.015625)"/>
       <path id="DejaVuSans-Bold-61" d="M 2106 1575 
Q 1756 1575 1579 1456 
Q 1403 1338 1403 1106 
Q 1403 894 1545 773 
Q 1688 653 1941 653 
Q 2256 653 2472 879 
Q 2688 1106 2688 1447 
L 2688 1575 
L 2106 1575 
z
M 3816 1997 
L 3816 0 
L 2688 0 
L 2688 519 
Q 2463 200 2181 54 
Q 1900 -91 1497 -91 
Q 953 -91 614 226 
Q 275 544 275 1050 
Q 275 1666 698 1953 
Q 1122 2241 2028 2241 
L 2688 2241 
L 2688 2328 
Q 2688 2594 2478 2717 
Q 2269 2841 1825 2841 
Q 1466 2841 1156 2769 
Q 847 2697 581 2553 
L 581 3406 
Q 941 3494 1303 3539 
Q 1666 3584 2028 3584 
Q 2975 3584 3395 3211 
Q 3816 2838 3816 1997 
z
" transform="scale(0.015625)"/>
       <path id="DejaVuSans-Bold-69" d="M 538 3500 
L 1656 3500 
L 1656 0 
L 538 0 
L 538 3500 
z
M 538 4863 
L 1656 4863 
L 1656 3950 
L 538 3950 
L 538 4863 
z
" transform="scale(0.015625)"/>
       <path id="DejaVuSans-Bold-6f" d="M 2203 2784 
Q 1831 2784 1636 2517 
Q 1441 2250 1441 1747 
Q 1441 1244 1636 976 
Q 1831 709 2203 709 
Q 2569 709 2762 976 
Q 2956 1244 2956 1747 
Q 2956 2250 2762 2517 
Q 2569 2784 2203 2784 
z
M 2203 3584 
Q 3106 3584 3614 3096 
Q 4122 2609 4122 1747 
Q 4122 884 3614 396 
Q 3106 -91 2203 -91 
Q 1297 -91 786 396 
Q 275 884 275 1747 
Q 275 2609 786 3096 
Q 1297 3584 2203 3584 
z
" transform="scale(0.015625)"/>
       <path id="DejaVuSans-Bold-6e" d="M 4056 2131 
L 4056 0 
L 2931 0 
L 2931 347 
L 2931 1631 
Q 2931 2084 2911 2256 
Q 2891 2428 2841 2509 
Q 2775 2619 2662 2680 
Q 2550 2741 2406 2741 
Q 2056 2741 1856 2470 
Q 1656 2200 1656 1722 
L 1656 0 
L 538 0 
L 538 3500 
L 1656 3500 
L 1656 2988 
Q 1909 3294 2193 3439 
Q 2478 3584 2822 3584 
Q 3428 3584 3742 3212 
Q 4056 2841 4056 2131 
z
" transform="scale(0.015625)"/>
       <path id="DejaVuSans-Bold-20" transform="scale(0.015625)"/>
       <path id="DejaVuSans-Bold-72" d="M 3138 2547 
Q 2991 2616 2845 2648 
Q 2700 2681 2553 2681 
Q 2122 2681 1889 2404 
Q 1656 2128 1656 1613 
L 1656 0 
L 538 0 
L 538 3500 
L 1656 3500 
L 1656 2925 
Q 1872 3269 2151 3426 
Q 2431 3584 2822 3584 
Q 2878 3584 2943 3579 
Q 3009 3575 3134 3559 
L 3138 2547 
z
" transform="scale(0.015625)"/>
       <path id="DejaVuSans-Bold-65" d="M 4031 1759 
L 4031 1441 
L 1416 1441 
Q 1456 1047 1700 850 
Q 1944 653 2381 653 
Q 2734 653 3104 758 
Q 3475 863 3866 1075 
L 3866 213 
Q 3469 63 3072 -14 
Q 2675 -91 2278 -91 
Q 1328 -91 801 392 
Q 275 875 275 1747 
Q 275 2603 792 3093 
Q 1309 3584 2216 3584 
Q 3041 3584 3536 3087 
Q 4031 2591 4031 1759 
z
M 2881 2131 
Q 2881 2450 2695 2645 
Q 2509 2841 2209 2841 
Q 1884 2841 1681 2658 
Q 1478 2475 1428 2131 
L 2881 2131 
z
" transform="scale(0.015625)"/>
       <path id="DejaVuSans-Bold-28" d="M 2413 -844 
L 1484 -844 
Q 1006 -72 778 623 
Q 550 1319 550 2003 
Q 550 2688 779 3389 
Q 1009 4091 1484 4856 
L 2413 4856 
Q 2013 4116 1813 3408 
Q 1613 2700 1613 2009 
Q 1613 1319 1811 609 
Q 2009 -100 2413 -844 
z
" transform="scale(0.015625)"/>
       <path id="DejaVuSans-Oblique-63" d="M 3431 3366 
L 3316 2797 
Q 3109 2947 2876 3022 
Q 2644 3097 2394 3097 
Q 2119 3097 1870 3000 
Q 1622 2903 1453 2725 
Q 1184 2453 1037 2087 
Q 891 1722 891 1331 
Q 891 859 1127 628 
Q 1363 397 1844 397 
Q 2081 397 2348 469 
Q 2616 541 2906 684 
L 2797 116 
Q 2547 13 2283 -39 
Q 2019 -91 1741 -91 
Q 1044 -91 669 257 
Q 294 606 294 1253 
Q 294 1797 489 2255 
Q 684 2713 1069 3078 
Q 1331 3328 1684 3456 
Q 2038 3584 2456 3584 
Q 2700 3584 2940 3529 
Q 3181 3475 3431 3366 
z
" transform="scale(0.015625)"/>
       <path id="DejaVuSans-Bold-29" d="M 513 -844 
Q 913 -100 1113 609 
Q 1313 1319 1313 2009 
Q 1313 2700 1113 3408 
Q 913 4116 513 4856 
L 1441 4856 
Q 1916 4091 2145 3389 
Q 2375 2688 2375 2003 
Q 2375 1319 2147 623 
Q 1919 -72 1441 -844 
L 513 -844 
z
" transform="scale(0.015625)"/>
      </defs>
      <use xlink:href="#DejaVuSans-Bold-4d" transform="translate(0 0.015625)"/>
      <use xlink:href="#DejaVuSans-Bold-75" transform="translate(99.511719 0.015625)"/>
      <use xlink:href="#DejaVuSans-Bold-74" transform="translate(170.703125 0.015625)"/>
      <use xlink:href="#DejaVuSans-Bold-61" transform="translate(218.505859 0.015625)"/>
      <use xlink:href="#DejaVuSans-Bold-74" transform="translate(285.986328 0.015625)"/>
      <use xlink:href="#DejaVuSans-Bold-69" transform="translate(333.789062 0.015625)"/>
      <use xlink:href="#DejaVuSans-Bold-6f" transform="translate(368.066406 0.015625)"/>
      <use xlink:href="#DejaVuSans-Bold-6e" transform="translate(436.767578 0.015625)"/>
      <use xlink:href="#DejaVuSans-Bold-20" transform="translate(507.958984 0.015625)"/>
      <use xlink:href="#DejaVuSans-Bold-72" transform="translate(542.773438 0.015625)"/>
      <use xlink:href="#DejaVuSans-Bold-61" transform="translate(592.089844 0.015625)"/>
      <use xlink:href="#DejaVuSans-Bold-74" transform="translate(659.570312 0.015625)"/>
      <use xlink:href="#DejaVuSans-Bold-65" transform="translate(707.373047 0.015625)"/>
      <use xlink:href="#DejaVuSans-Bold-20" transform="translate(775.195312 0.015625)"/>
      <use xlink:href="#DejaVuSans-Bold-28" transform="translate(810.009766 0.015625)"/>
      <use xlink:href="#DejaVuSans-Oblique-63" transform="translate(855.712891 0.015625)"/>
      <use xlink:href="#DejaVuSans-Bold-29" transform="translate(910.693359 0.015625)"/>
     </g>
    </g>
   </g>
   <g id="matplotlib.axis_2">
    <g id="ytick_1">
     <g id="line2d_9">
      <defs>
       <path id="m2420e91241" d="M 0 0 
L -3.5 0 
" style="stroke: #000000; stroke-width: 0.8"/>
      </defs>
      <g>
       <use xlink:href="#m2420e91241" x="39.408365" y="251.740072" style="stroke: #000000; stroke-width: 0.8"/>
      </g>
     </g>
     <g id="text_10">
      <!-- 0 -->
      <g transform="translate(26.045865 255.539291) scale(0.1 -0.1)">
       <use xlink:href="#DejaVuSans-30"/>
      </g>
     </g>
    </g>
    <g id="ytick_2">
     <g id="line2d_10">
      <g>
       <use xlink:href="#m2420e91241" x="39.408365" y="204.157777" style="stroke: #000000; stroke-width: 0.8"/>
      </g>
     </g>
     <g id="text_11">
      <!-- 5 -->
      <g transform="translate(26.045865 207.956995) scale(0.1 -0.1)">
       <use xlink:href="#DejaVuSans-35"/>
      </g>
     </g>
    </g>
    <g id="ytick_3">
     <g id="line2d_11">
      <g>
       <use xlink:href="#m2420e91241" x="39.408365" y="156.575481" style="stroke: #000000; stroke-width: 0.8"/>
      </g>
     </g>
     <g id="text_12">
      <!-- 10 -->
      <g transform="translate(19.683365 160.3747) scale(0.1 -0.1)">
       <use xlink:href="#DejaVuSans-31"/>
       <use xlink:href="#DejaVuSans-30" x="63.623047"/>
      </g>
     </g>
    </g>
    <g id="ytick_4">
     <g id="line2d_12">
      <g>
       <use xlink:href="#m2420e91241" x="39.408365" y="108.993185" style="stroke: #000000; stroke-width: 0.8"/>
      </g>
     </g>
     <g id="text_13">
      <!-- 15 -->
      <g transform="translate(19.683365 112.792404) scale(0.1 -0.1)">
       <use xlink:href="#DejaVuSans-31"/>
       <use xlink:href="#DejaVuSans-35" x="63.623047"/>
      </g>
     </g>
    </g>
    <g id="ytick_5">
     <g id="line2d_13">
      <g>
       <use xlink:href="#m2420e91241" x="39.408365" y="61.410889" style="stroke: #000000; stroke-width: 0.8"/>
      </g>
     </g>
     <g id="text_14">
      <!-- 20 -->
      <g transform="translate(19.683365 65.210108) scale(0.1 -0.1)">
       <use xlink:href="#DejaVuSans-32"/>
       <use xlink:href="#DejaVuSans-30" x="63.623047"/>
      </g>
     </g>
    </g>
    <g id="text_15">
     <!-- 6 moves' frequency -->
     <g transform="translate(12.878209 208.467969) rotate(-90) scale(0.13 -0.13)">
      <defs>
       <path id="DejaVuSans-Bold-36" d="M 2316 2303 
Q 2000 2303 1842 2098 
Q 1684 1894 1684 1484 
Q 1684 1075 1842 870 
Q 2000 666 2316 666 
Q 2634 666 2792 870 
Q 2950 1075 2950 1484 
Q 2950 1894 2792 2098 
Q 2634 2303 2316 2303 
z
M 3803 4544 
L 3803 3681 
Q 3506 3822 3243 3889 
Q 2981 3956 2731 3956 
Q 2194 3956 1894 3657 
Q 1594 3359 1544 2772 
Q 1750 2925 1990 3001 
Q 2231 3078 2516 3078 
Q 3231 3078 3670 2659 
Q 4109 2241 4109 1563 
Q 4109 813 3618 361 
Q 3128 -91 2303 -91 
Q 1394 -91 895 523 
Q 397 1138 397 2266 
Q 397 3422 980 4083 
Q 1563 4744 2578 4744 
Q 2900 4744 3203 4694 
Q 3506 4644 3803 4544 
z
" transform="scale(0.015625)"/>
       <path id="DejaVuSans-Bold-6d" d="M 3781 2919 
Q 3994 3244 4286 3414 
Q 4578 3584 4928 3584 
Q 5531 3584 5847 3212 
Q 6163 2841 6163 2131 
L 6163 0 
L 5038 0 
L 5038 1825 
Q 5041 1866 5042 1909 
Q 5044 1953 5044 2034 
Q 5044 2406 4934 2573 
Q 4825 2741 4581 2741 
Q 4263 2741 4089 2478 
Q 3916 2216 3909 1719 
L 3909 0 
L 2784 0 
L 2784 1825 
Q 2784 2406 2684 2573 
Q 2584 2741 2328 2741 
Q 2006 2741 1831 2477 
Q 1656 2213 1656 1722 
L 1656 0 
L 531 0 
L 531 3500 
L 1656 3500 
L 1656 2988 
Q 1863 3284 2130 3434 
Q 2397 3584 2719 3584 
Q 3081 3584 3359 3409 
Q 3638 3234 3781 2919 
z
" transform="scale(0.015625)"/>
       <path id="DejaVuSans-Bold-76" d="M 97 3500 
L 1216 3500 
L 2088 1081 
L 2956 3500 
L 4078 3500 
L 2700 0 
L 1472 0 
L 97 3500 
z
" transform="scale(0.015625)"/>
       <path id="DejaVuSans-Bold-73" d="M 3272 3391 
L 3272 2541 
Q 2913 2691 2578 2766 
Q 2244 2841 1947 2841 
Q 1628 2841 1473 2761 
Q 1319 2681 1319 2516 
Q 1319 2381 1436 2309 
Q 1553 2238 1856 2203 
L 2053 2175 
Q 2913 2066 3209 1816 
Q 3506 1566 3506 1031 
Q 3506 472 3093 190 
Q 2681 -91 1863 -91 
Q 1516 -91 1145 -36 
Q 775 19 384 128 
L 384 978 
Q 719 816 1070 734 
Q 1422 653 1784 653 
Q 2113 653 2278 743 
Q 2444 834 2444 1013 
Q 2444 1163 2330 1236 
Q 2216 1309 1875 1350 
L 1678 1375 
Q 931 1469 631 1722 
Q 331 1975 331 2491 
Q 331 3047 712 3315 
Q 1094 3584 1881 3584 
Q 2191 3584 2531 3537 
Q 2872 3491 3272 3391 
z
" transform="scale(0.015625)"/>
       <path id="DejaVuSans-Bold-27" d="M 1350 4666 
L 1350 2931 
L 609 2931 
L 609 4666 
L 1350 4666 
z
" transform="scale(0.015625)"/>
       <path id="DejaVuSans-Bold-66" d="M 2841 4863 
L 2841 4128 
L 2222 4128 
Q 1984 4128 1890 4042 
Q 1797 3956 1797 3744 
L 1797 3500 
L 2753 3500 
L 2753 2700 
L 1797 2700 
L 1797 0 
L 678 0 
L 678 2700 
L 122 2700 
L 122 3500 
L 678 3500 
L 678 3744 
Q 678 4316 997 4589 
Q 1316 4863 1984 4863 
L 2841 4863 
z
" transform="scale(0.015625)"/>
       <path id="DejaVuSans-Bold-71" d="M 2181 2772 
Q 1825 2772 1636 2509 
Q 1447 2247 1447 1747 
Q 1447 1247 1636 984 
Q 1825 722 2181 722 
Q 2541 722 2730 984 
Q 2919 1247 2919 1747 
Q 2919 2247 2730 2509 
Q 2541 2772 2181 2772 
z
M 2919 506 
Q 2688 197 2409 53 
Q 2131 -91 1766 -91 
Q 1119 -91 703 423 
Q 288 938 288 1747 
Q 288 2556 703 3067 
Q 1119 3578 1766 3578 
Q 2131 3578 2409 3434 
Q 2688 3291 2919 2981 
L 2919 3500 
L 4044 3500 
L 4044 -1331 
L 2919 -1331 
L 2919 506 
z
" transform="scale(0.015625)"/>
       <path id="DejaVuSans-Bold-63" d="M 3366 3391 
L 3366 2478 
Q 3138 2634 2908 2709 
Q 2678 2784 2431 2784 
Q 1963 2784 1702 2511 
Q 1441 2238 1441 1747 
Q 1441 1256 1702 982 
Q 1963 709 2431 709 
Q 2694 709 2930 787 
Q 3166 866 3366 1019 
L 3366 103 
Q 3103 6 2833 -42 
Q 2563 -91 2291 -91 
Q 1344 -91 809 395 
Q 275 881 275 1747 
Q 275 2613 809 3098 
Q 1344 3584 2291 3584 
Q 2566 3584 2833 3536 
Q 3100 3488 3366 3391 
z
" transform="scale(0.015625)"/>
       <path id="DejaVuSans-Bold-79" d="M 78 3500 
L 1197 3500 
L 2138 1125 
L 2938 3500 
L 4056 3500 
L 2584 -331 
Q 2363 -916 2067 -1148 
Q 1772 -1381 1288 -1381 
L 641 -1381 
L 641 -647 
L 991 -647 
Q 1275 -647 1404 -556 
Q 1534 -466 1606 -231 
L 1638 -134 
L 78 3500 
z
" transform="scale(0.015625)"/>
      </defs>
      <use xlink:href="#DejaVuSans-Bold-36"/>
      <use xlink:href="#DejaVuSans-Bold-20" x="69.580078"/>
      <use xlink:href="#DejaVuSans-Bold-6d" x="104.394531"/>
      <use xlink:href="#DejaVuSans-Bold-6f" x="208.59375"/>
      <use xlink:href="#DejaVuSans-Bold-76" x="277.294922"/>
      <use xlink:href="#DejaVuSans-Bold-65" x="342.480469"/>
      <use xlink:href="#DejaVuSans-Bold-73" x="410.302734"/>
      <use xlink:href="#DejaVuSans-Bold-27" x="469.824219"/>
      <use xlink:href="#DejaVuSans-Bold-20" x="500.439453"/>
      <use xlink:href="#DejaVuSans-Bold-66" x="535.253906"/>
      <use xlink:href="#DejaVuSans-Bold-72" x="578.759766"/>
      <use xlink:href="#DejaVuSans-Bold-65" x="628.076172"/>
      <use xlink:href="#DejaVuSans-Bold-71" x="695.898438"/>
      <use xlink:href="#DejaVuSans-Bold-75" x="767.480469"/>
      <use xlink:href="#DejaVuSans-Bold-65" x="838.671875"/>
      <use xlink:href="#DejaVuSans-Bold-6e" x="906.494141"/>
      <use xlink:href="#DejaVuSans-Bold-63" x="977.685547"/>
      <use xlink:href="#DejaVuSans-Bold-79" x="1036.962891"/>
     </g>
    </g>
   </g>
   <g id="patch_38">
    <path d="M 39.408365 251.740072 
L 39.408365 21.917584 
" style="fill: none; stroke: #000000; stroke-width: 0.8; stroke-linejoin: miter; stroke-linecap: square"/>
   </g>
   <g id="patch_39">
    <path d="M 39.408365 251.740072 
L 351.050781 251.740072 
" style="fill: none; stroke: #000000; stroke-width: 0.8; stroke-linejoin: miter; stroke-linecap: square"/>
   </g>
   <g id="text_16">
    <!-- (a) -->
    <g transform="translate(181.72387 15.917584) scale(0.17 -0.17)">
     <use xlink:href="#DejaVuSans-Bold-28"/>
     <use xlink:href="#DejaVuSans-Bold-61" x="45.703125"/>
     <use xlink:href="#DejaVuSans-Bold-29" x="113.183594"/>
    </g>
   </g>
  </g>
  <g id="axes_2">
   <g id="patch_40">
    <path d="M 405.357344 251.740072 
L 716.99976 251.740072 
L 716.99976 21.917584 
L 405.357344 21.917584 
z
" style="fill: #ffffff"/>
   </g>
   <g id="patch_41">
    <path d="M 419.522908 251.740072 
L 438.730453 251.740072 
L 438.730453 94.421107 
L 419.522908 94.421107 
z
" clip-path="url(#p9cee7a0c94)" style="fill: #1f77b4"/>
   </g>
   <g id="patch_42">
    <path d="M 443.532339 251.740072 
L 462.739884 251.740072 
L 462.739884 32.861512 
L 443.532339 32.861512 
z
" clip-path="url(#p9cee7a0c94)" style="fill: #1f77b4"/>
   </g>
   <g id="patch_43">
    <path d="M 467.54177 251.740072 
L 486.749315 251.740072 
L 486.749315 67.061287 
L 467.54177 67.061287 
z
" clip-path="url(#p9cee7a0c94)" style="fill: #1f77b4"/>
   </g>
   <g id="patch_44">
    <path d="M 491.551202 251.740072 
L 510.758746 251.740072 
L 510.758746 87.581152 
L 491.551202 87.581152 
z
" clip-path="url(#p9cee7a0c94)" style="fill: #1f77b4"/>
   </g>
   <g id="patch_45">
    <path d="M 515.560633 251.740072 
L 534.768178 251.740072 
L 534.768178 135.460837 
L 515.560633 135.460837 
z
" clip-path="url(#p9cee7a0c94)" style="fill: #1f77b4"/>
   </g>
   <g id="patch_46">
    <path d="M 539.570064 251.740072 
L 558.777609 251.740072 
L 558.777609 176.500567 
L 539.570064 176.500567 
z
" clip-path="url(#p9cee7a0c94)" style="fill: #1f77b4"/>
   </g>
   <g id="patch_47">
    <path d="M 563.579495 251.740072 
L 582.78704 251.740072 
L 582.78704 197.020432 
L 563.579495 197.020432 
z
" clip-path="url(#p9cee7a0c94)" style="fill: #1f77b4"/>
   </g>
   <g id="patch_48">
    <path d="M 587.588926 251.740072 
L 606.796471 251.740072 
L 606.796471 224.380252 
L 587.588926 224.380252 
z
" clip-path="url(#p9cee7a0c94)" style="fill: #1f77b4"/>
   </g>
   <g id="patch_49">
    <path d="M 611.598357 251.740072 
L 630.805902 251.740072 
L 630.805902 238.060162 
L 611.598357 238.060162 
z
" clip-path="url(#p9cee7a0c94)" style="fill: #1f77b4"/>
   </g>
   <g id="patch_50">
    <path d="M 635.607788 251.740072 
L 654.815333 251.740072 
L 654.815333 244.900117 
L 635.607788 244.900117 
z
" clip-path="url(#p9cee7a0c94)" style="fill: #1f77b4"/>
   </g>
   <g id="patch_51">
    <path d="M 683.626651 251.740072 
L 702.834196 251.740072 
L 702.834196 244.900117 
L 683.626651 244.900117 
z
" clip-path="url(#p9cee7a0c94)" style="fill: #1f77b4"/>
   </g>
   <g id="matplotlib.axis_3">
    <g id="xtick_9">
     <g id="line2d_14">
      <g>
       <use xlink:href="#m759538961d" x="429.126681" y="251.740072" style="stroke: #000000; stroke-width: 0.8"/>
      </g>
     </g>
     <g id="text_17">
      <!-- 6 -->
      <g transform="translate(425.945431 266.33851) scale(0.1 -0.1)">
       <use xlink:href="#DejaVuSans-36"/>
      </g>
     </g>
    </g>
    <g id="xtick_10">
     <g id="line2d_15">
      <g>
       <use xlink:href="#m759538961d" x="477.145543" y="251.740072" style="stroke: #000000; stroke-width: 0.8"/>
      </g>
     </g>
     <g id="text_18">
      <!-- 8 -->
      <g transform="translate(473.964293 266.33851) scale(0.1 -0.1)">
       <defs>
        <path id="DejaVuSans-38" d="M 2034 2216 
Q 1584 2216 1326 1975 
Q 1069 1734 1069 1313 
Q 1069 891 1326 650 
Q 1584 409 2034 409 
Q 2484 409 2743 651 
Q 3003 894 3003 1313 
Q 3003 1734 2745 1975 
Q 2488 2216 2034 2216 
z
M 1403 2484 
Q 997 2584 770 2862 
Q 544 3141 544 3541 
Q 544 4100 942 4425 
Q 1341 4750 2034 4750 
Q 2731 4750 3128 4425 
Q 3525 4100 3525 3541 
Q 3525 3141 3298 2862 
Q 3072 2584 2669 2484 
Q 3125 2378 3379 2068 
Q 3634 1759 3634 1313 
Q 3634 634 3220 271 
Q 2806 -91 2034 -91 
Q 1263 -91 848 271 
Q 434 634 434 1313 
Q 434 1759 690 2068 
Q 947 2378 1403 2484 
z
M 1172 3481 
Q 1172 3119 1398 2916 
Q 1625 2713 2034 2713 
Q 2441 2713 2670 2916 
Q 2900 3119 2900 3481 
Q 2900 3844 2670 4047 
Q 2441 4250 2034 4250 
Q 1625 4250 1398 4047 
Q 1172 3844 1172 3481 
z
" transform="scale(0.015625)"/>
       </defs>
       <use xlink:href="#DejaVuSans-38"/>
      </g>
     </g>
    </g>
    <g id="xtick_11">
     <g id="line2d_16">
      <g>
       <use xlink:href="#m759538961d" x="525.164405" y="251.740072" style="stroke: #000000; stroke-width: 0.8"/>
      </g>
     </g>
     <g id="text_19">
      <!-- 10 -->
      <g transform="translate(518.801905 266.33851) scale(0.1 -0.1)">
       <use xlink:href="#DejaVuSans-31"/>
       <use xlink:href="#DejaVuSans-30" x="63.623047"/>
      </g>
     </g>
    </g>
    <g id="xtick_12">
     <g id="line2d_17">
      <g>
       <use xlink:href="#m759538961d" x="573.183267" y="251.740072" style="stroke: #000000; stroke-width: 0.8"/>
      </g>
     </g>
     <g id="text_20">
      <!-- 12 -->
      <g transform="translate(566.820767 266.33851) scale(0.1 -0.1)">
       <use xlink:href="#DejaVuSans-31"/>
       <use xlink:href="#DejaVuSans-32" x="63.623047"/>
      </g>
     </g>
    </g>
    <g id="xtick_13">
     <g id="line2d_18">
      <g>
       <use xlink:href="#m759538961d" x="621.20213" y="251.740072" style="stroke: #000000; stroke-width: 0.8"/>
      </g>
     </g>
     <g id="text_21">
      <!-- 14 -->
      <g transform="translate(614.83963 266.33851) scale(0.1 -0.1)">
       <use xlink:href="#DejaVuSans-31"/>
       <use xlink:href="#DejaVuSans-34" x="63.623047"/>
      </g>
     </g>
    </g>
    <g id="xtick_14">
     <g id="line2d_19">
      <g>
       <use xlink:href="#m759538961d" x="669.220992" y="251.740072" style="stroke: #000000; stroke-width: 0.8"/>
      </g>
     </g>
     <g id="text_22">
      <!-- 16 -->
      <g transform="translate(662.858492 266.33851) scale(0.1 -0.1)">
       <use xlink:href="#DejaVuSans-31"/>
       <use xlink:href="#DejaVuSans-36" x="63.623047"/>
      </g>
     </g>
    </g>
    <g id="text_23">
     <!-- Number of moves -->
     <g transform="translate(496.499489 282.296166) scale(0.13 -0.13)">
      <defs>
       <path id="DejaVuSans-Bold-4e" d="M 588 4666 
L 1931 4666 
L 3628 1466 
L 3628 4666 
L 4769 4666 
L 4769 0 
L 3425 0 
L 1728 3200 
L 1728 0 
L 588 0 
L 588 4666 
z
" transform="scale(0.015625)"/>
       <path id="DejaVuSans-Bold-62" d="M 2400 722 
Q 2759 722 2948 984 
Q 3138 1247 3138 1747 
Q 3138 2247 2948 2509 
Q 2759 2772 2400 2772 
Q 2041 2772 1848 2508 
Q 1656 2244 1656 1747 
Q 1656 1250 1848 986 
Q 2041 722 2400 722 
z
M 1656 2988 
Q 1888 3294 2169 3439 
Q 2450 3584 2816 3584 
Q 3463 3584 3878 3070 
Q 4294 2556 4294 1747 
Q 4294 938 3878 423 
Q 3463 -91 2816 -91 
Q 2450 -91 2169 54 
Q 1888 200 1656 506 
L 1656 0 
L 538 0 
L 538 4863 
L 1656 4863 
L 1656 2988 
z
" transform="scale(0.015625)"/>
      </defs>
      <use xlink:href="#DejaVuSans-Bold-4e"/>
      <use xlink:href="#DejaVuSans-Bold-75" x="83.691406"/>
      <use xlink:href="#DejaVuSans-Bold-6d" x="154.882812"/>
      <use xlink:href="#DejaVuSans-Bold-62" x="259.082031"/>
      <use xlink:href="#DejaVuSans-Bold-65" x="330.664062"/>
      <use xlink:href="#DejaVuSans-Bold-72" x="398.486328"/>
      <use xlink:href="#DejaVuSans-Bold-20" x="447.802734"/>
      <use xlink:href="#DejaVuSans-Bold-6f" x="482.617188"/>
      <use xlink:href="#DejaVuSans-Bold-66" x="551.318359"/>
      <use xlink:href="#DejaVuSans-Bold-20" x="594.824219"/>
      <use xlink:href="#DejaVuSans-Bold-6d" x="629.638672"/>
      <use xlink:href="#DejaVuSans-Bold-6f" x="733.837891"/>
      <use xlink:href="#DejaVuSans-Bold-76" x="802.539062"/>
      <use xlink:href="#DejaVuSans-Bold-65" x="867.724609"/>
      <use xlink:href="#DejaVuSans-Bold-73" x="935.546875"/>
     </g>
    </g>
   </g>
   <g id="matplotlib.axis_4">
    <g id="ytick_6">
     <g id="line2d_20">
      <g>
       <use xlink:href="#m2420e91241" x="405.357344" y="251.740072" style="stroke: #000000; stroke-width: 0.8"/>
      </g>
     </g>
     <g id="text_24">
      <!-- 0 -->
      <g transform="translate(391.994844 255.539291) scale(0.1 -0.1)">
       <use xlink:href="#DejaVuSans-30"/>
      </g>
     </g>
    </g>
    <g id="ytick_7">
     <g id="line2d_21">
      <g>
       <use xlink:href="#m2420e91241" x="405.357344" y="217.540297" style="stroke: #000000; stroke-width: 0.8"/>
      </g>
     </g>
     <g id="text_25">
      <!-- 5 -->
      <g transform="translate(391.994844 221.339516) scale(0.1 -0.1)">
       <use xlink:href="#DejaVuSans-35"/>
      </g>
     </g>
    </g>
    <g id="ytick_8">
     <g id="line2d_22">
      <g>
       <use xlink:href="#m2420e91241" x="405.357344" y="183.340522" style="stroke: #000000; stroke-width: 0.8"/>
      </g>
     </g>
     <g id="text_26">
      <!-- 10 -->
      <g transform="translate(385.632344 187.139741) scale(0.1 -0.1)">
       <use xlink:href="#DejaVuSans-31"/>
       <use xlink:href="#DejaVuSans-30" x="63.623047"/>
      </g>
     </g>
    </g>
    <g id="ytick_9">
     <g id="line2d_23">
      <g>
       <use xlink:href="#m2420e91241" x="405.357344" y="149.140747" style="stroke: #000000; stroke-width: 0.8"/>
      </g>
     </g>
     <g id="text_27">
      <!-- 15 -->
      <g transform="translate(385.632344 152.939966) scale(0.1 -0.1)">
       <use xlink:href="#DejaVuSans-31"/>
       <use xlink:href="#DejaVuSans-35" x="63.623047"/>
      </g>
     </g>
    </g>
    <g id="ytick_10">
     <g id="line2d_24">
      <g>
       <use xlink:href="#m2420e91241" x="405.357344" y="114.940972" style="stroke: #000000; stroke-width: 0.8"/>
      </g>
     </g>
     <g id="text_28">
      <!-- 20 -->
      <g transform="translate(385.632344 118.740191) scale(0.1 -0.1)">
       <use xlink:href="#DejaVuSans-32"/>
       <use xlink:href="#DejaVuSans-30" x="63.623047"/>
      </g>
     </g>
    </g>
    <g id="ytick_11">
     <g id="line2d_25">
      <g>
       <use xlink:href="#m2420e91241" x="405.357344" y="80.741197" style="stroke: #000000; stroke-width: 0.8"/>
      </g>
     </g>
     <g id="text_29">
      <!-- 25 -->
      <g transform="translate(385.632344 84.540416) scale(0.1 -0.1)">
       <use xlink:href="#DejaVuSans-32"/>
       <use xlink:href="#DejaVuSans-35" x="63.623047"/>
      </g>
     </g>
    </g>
    <g id="ytick_12">
     <g id="line2d_26">
      <g>
       <use xlink:href="#m2420e91241" x="405.357344" y="46.541422" style="stroke: #000000; stroke-width: 0.8"/>
      </g>
     </g>
     <g id="text_30">
      <!-- 30 -->
      <g transform="translate(385.632344 50.340641) scale(0.1 -0.1)">
       <use xlink:href="#DejaVuSans-33"/>
       <use xlink:href="#DejaVuSans-30" x="63.623047"/>
      </g>
     </g>
    </g>
    <g id="text_31">
     <!-- Frequencies -->
     <g transform="translate(378.92875 181.143594) rotate(-90) scale(0.13 -0.13)">
      <defs>
       <path id="DejaVuSans-Bold-46" d="M 588 4666 
L 3834 4666 
L 3834 3756 
L 1791 3756 
L 1791 2888 
L 3713 2888 
L 3713 1978 
L 1791 1978 
L 1791 0 
L 588 0 
L 588 4666 
z
" transform="scale(0.015625)"/>
      </defs>
      <use xlink:href="#DejaVuSans-Bold-46"/>
      <use xlink:href="#DejaVuSans-Bold-72" x="61.935547"/>
      <use xlink:href="#DejaVuSans-Bold-65" x="111.251953"/>
      <use xlink:href="#DejaVuSans-Bold-71" x="179.074219"/>
      <use xlink:href="#DejaVuSans-Bold-75" x="250.65625"/>
      <use xlink:href="#DejaVuSans-Bold-65" x="321.847656"/>
      <use xlink:href="#DejaVuSans-Bold-6e" x="389.669922"/>
      <use xlink:href="#DejaVuSans-Bold-63" x="460.861328"/>
      <use xlink:href="#DejaVuSans-Bold-69" x="520.138672"/>
      <use xlink:href="#DejaVuSans-Bold-65" x="554.416016"/>
      <use xlink:href="#DejaVuSans-Bold-73" x="622.238281"/>
     </g>
    </g>
   </g>
   <g id="patch_52">
    <path d="M 405.357344 251.740072 
L 405.357344 21.917584 
" style="fill: none; stroke: #000000; stroke-width: 0.8; stroke-linejoin: miter; stroke-linecap: square"/>
   </g>
   <g id="patch_53">
    <path d="M 405.357344 251.740072 
L 716.99976 251.740072 
" style="fill: none; stroke: #000000; stroke-width: 0.8; stroke-linejoin: miter; stroke-linecap: square"/>
   </g>
   <g id="text_32">
    <!-- (b) -->
    <g transform="translate(547.32488 15.917584) scale(0.17 -0.17)">
     <use xlink:href="#DejaVuSans-Bold-28"/>
     <use xlink:href="#DejaVuSans-Bold-62" x="45.703125"/>
     <use xlink:href="#DejaVuSans-Bold-29" x="117.285156"/>
    </g>
   </g>
  </g>
  <g id="axes_3">
   <g id="patch_54">
    <path d="M 576 129.6 
L 720 129.6 
L 720 43.2 
L 576 43.2 
z
" style="fill: #ffffff"/>
   </g>
   <g id="patch_55">
    <path d="M 582.545455 129.6 
L 593.07837 129.6 
L 593.07837 91.621978 
L 582.545455 91.621978 
z
" clip-path="url(#p88f7538c6e)" style="fill: #ffa500"/>
   </g>
   <g id="patch_56">
    <path d="M 597.592476 129.6 
L 608.125392 129.6 
L 608.125392 66.303297 
L 597.592476 66.303297 
z
" clip-path="url(#p88f7538c6e)" style="fill: #ffa500"/>
   </g>
   <g id="patch_57">
    <path d="M 612.639498 129.6 
L 623.172414 129.6 
L 623.172414 78.962637 
L 612.639498 78.962637 
z
" clip-path="url(#p88f7538c6e)" style="fill: #ffa500"/>
   </g>
   <g id="patch_58">
    <path d="M 627.68652 129.6 
L 638.219436 129.6 
L 638.219436 47.314286 
L 627.68652 47.314286 
z
" clip-path="url(#p88f7538c6e)" style="fill: #ffa500"/>
   </g>
   <g id="patch_59">
    <path d="M 642.733542 129.6 
L 653.266458 129.6 
L 653.266458 91.621978 
L 642.733542 91.621978 
z
" clip-path="url(#p88f7538c6e)" style="fill: #ffa500"/>
   </g>
   <g id="patch_60">
    <path d="M 657.780564 129.6 
L 668.31348 129.6 
L 668.31348 110.610989 
L 657.780564 110.610989 
z
" clip-path="url(#p88f7538c6e)" style="fill: #ffa500"/>
   </g>
   <g id="patch_61">
    <path d="M 672.827586 129.6 
L 683.360502 129.6 
L 683.360502 120.105495 
L 672.827586 120.105495 
z
" clip-path="url(#p88f7538c6e)" style="fill: #ffa500"/>
   </g>
   <g id="patch_62">
    <path d="M 702.92163 129.6 
L 713.454545 129.6 
L 713.454545 126.435165 
L 702.92163 126.435165 
z
" clip-path="url(#p88f7538c6e)" style="fill: #ffa500"/>
   </g>
   <g id="matplotlib.axis_5">
    <g id="xtick_15">
     <g id="line2d_27">
      <g>
       <use xlink:href="#m759538961d" x="610.382445" y="129.6" style="stroke: #000000; stroke-width: 0.8"/>
      </g>
     </g>
     <g id="text_33">
      <!-- 7.5 -->
      <g transform="translate(602.430883 144.198437) scale(0.1 -0.1)">
       <defs>
        <path id="DejaVuSans-2e" d="M 684 794 
L 1344 794 
L 1344 0 
L 684 0 
L 684 794 
z
" transform="scale(0.015625)"/>
       </defs>
       <use xlink:href="#DejaVuSans-37"/>
       <use xlink:href="#DejaVuSans-2e" x="63.623047"/>
       <use xlink:href="#DejaVuSans-35" x="95.410156"/>
      </g>
     </g>
    </g>
    <g id="xtick_16">
     <g id="line2d_28">
      <g>
       <use xlink:href="#m759538961d" x="648" y="129.6" style="stroke: #000000; stroke-width: 0.8"/>
      </g>
     </g>
     <g id="text_34">
      <!-- 10.0 -->
      <g transform="translate(636.867188 144.198437) scale(0.1 -0.1)">
       <use xlink:href="#DejaVuSans-31"/>
       <use xlink:href="#DejaVuSans-30" x="63.623047"/>
       <use xlink:href="#DejaVuSans-2e" x="127.246094"/>
       <use xlink:href="#DejaVuSans-30" x="159.033203"/>
      </g>
     </g>
    </g>
    <g id="xtick_17">
     <g id="line2d_29">
      <g>
       <use xlink:href="#m759538961d" x="685.617555" y="129.6" style="stroke: #000000; stroke-width: 0.8"/>
      </g>
     </g>
     <g id="text_35">
      <!-- 12.5 -->
      <g transform="translate(674.484742 144.198437) scale(0.1 -0.1)">
       <use xlink:href="#DejaVuSans-31"/>
       <use xlink:href="#DejaVuSans-32" x="63.623047"/>
       <use xlink:href="#DejaVuSans-2e" x="127.246094"/>
       <use xlink:href="#DejaVuSans-35" x="159.033203"/>
      </g>
     </g>
    </g>
   </g>
   <g id="matplotlib.axis_6">
    <g id="ytick_13">
     <g id="line2d_30">
      <g>
       <use xlink:href="#m2420e91241" x="576" y="129.6" style="stroke: #000000; stroke-width: 0.8"/>
      </g>
     </g>
     <g id="text_36">
      <!-- 0 -->
      <g transform="translate(562.6375 133.399219) scale(0.1 -0.1)">
       <use xlink:href="#DejaVuSans-30"/>
      </g>
     </g>
    </g>
    <g id="ytick_14">
     <g id="line2d_31">
      <g>
       <use xlink:href="#m2420e91241" x="576" y="97.951648" style="stroke: #000000; stroke-width: 0.8"/>
      </g>
     </g>
     <g id="text_37">
      <!-- 10 -->
      <g transform="translate(556.275 101.750867) scale(0.1 -0.1)">
       <use xlink:href="#DejaVuSans-31"/>
       <use xlink:href="#DejaVuSans-30" x="63.623047"/>
      </g>
     </g>
    </g>
    <g id="ytick_15">
     <g id="line2d_32">
      <g>
       <use xlink:href="#m2420e91241" x="576" y="66.303297" style="stroke: #000000; stroke-width: 0.8"/>
      </g>
     </g>
     <g id="text_38">
      <!-- 20 -->
      <g transform="translate(556.275 70.102515) scale(0.1 -0.1)">
       <use xlink:href="#DejaVuSans-32"/>
       <use xlink:href="#DejaVuSans-30" x="63.623047"/>
      </g>
     </g>
    </g>
   </g>
   <g id="patch_63">
    <path d="M 576 129.6 
L 576 43.2 
" style="fill: none; stroke: #000000; stroke-width: 0.8; stroke-linejoin: miter; stroke-linecap: square"/>
   </g>
   <g id="patch_64">
    <path d="M 576 129.6 
L 720 129.6 
" style="fill: none; stroke: #000000; stroke-width: 0.8; stroke-linejoin: miter; stroke-linecap: square"/>
   </g>
  </g>
 </g>
 <defs>
  <clipPath id="pfc4001f680">
   <rect x="39.408365" y="21.917584" width="311.642416" height="229.822489"/>
  </clipPath>
  <clipPath id="p9cee7a0c94">
   <rect x="405.357344" y="21.917584" width="311.642416" height="229.822489"/>
  </clipPath>
  <clipPath id="p88f7538c6e">
   <rect x="576" y="43.2" width="144" height="86.4"/>
  </clipPath>
 </defs>
</svg>
