<?xml version="1.0" encoding="utf-8" standalone="no"?>
<!DOCTYPE svg PUBLIC "-//W3C//DTD SVG 1.1//EN"
  "http://www.w3.org/Graphics/SVG/1.1/DTD/svg11.dtd">
<svg xmlns:xlink="http://www.w3.org/1999/xlink" width="720pt" height="288pt" viewBox="0 0 720 288" xmlns="http://www.w3.org/2000/svg" version="1.1">
 <metadata>
  <rdf:RDF xmlns:dc="http://purl.org/dc/elements/1.1/" xmlns:cc="http://creativecommons.org/ns#" xmlns:rdf="http://www.w3.org/1999/02/22-rdf-syntax-ns#">
   <cc:Work>
    <dc:type rdf:resource="http://purl.org/dc/dcmitype/StillImage"/>
    <dc:date>2024-07-23T12:27:07.906260</dc:date>
    <dc:format>image/svg+xml</dc:format>
    <dc:creator>
     <cc:Agent>
      <dc:title>Matplotlib v3.8.3, https://matplotlib.org/</dc:title>
     </cc:Agent>
    </dc:creator>
   </cc:Work>
  </rdf:RDF>
 </metadata>
 <defs>
  <style type="text/css">*{stroke-linejoin: round; stroke-linecap: butt}</style>
 </defs>
 <g id="figure_1">
  <g id="patch_1">
   <path d="M 0 288 
L 720 288 
L 720 0 
L 0 0 
z
" style="fill: #ffffff"/>
  </g>
  <g id="axes_1">
   <g id="patch_2">
    <path d="M 42.484928 251.740072 
L 352.589063 251.740072 
L 352.589063 21.917584 
L 42.484928 21.917584 
z
" style="fill: #ffffff"/>
   </g>
   <g id="matplotlib.axis_1">
    <g id="xtick_1">
     <g id="line2d_1">
      <defs>
       <path id="m5fb7d191b9" d="M 0 0 
L 0 3.5 
" style="stroke: #000000; stroke-width: 0.8"/>
      </defs>
      <g>
       <use xlink:href="#m5fb7d191b9" x="56.58057" y="251.740072" style="stroke: #000000; stroke-width: 0.8"/>
      </g>
     </g>
     <g id="text_1">
      <!-- 1 -->
      <g transform="translate(53.39932 266.33851) scale(0.1 -0.1)">
       <defs>
        <path id="DejaVuSans-31" d="M 794 531 
L 1825 531 
L 1825 4091 
L 703 3866 
L 703 4441 
L 1819 4666 
L 2450 4666 
L 2450 531 
L 3481 531 
L 3481 0 
L 794 0 
L 794 531 
z
" transform="scale(0.015625)"/>
       </defs>
       <use xlink:href="#DejaVuSans-31"/>
      </g>
     </g>
    </g>
    <g id="xtick_2">
     <g id="line2d_2">
      <g>
       <use xlink:href="#m5fb7d191b9" x="103.566045" y="251.740072" style="stroke: #000000; stroke-width: 0.8"/>
      </g>
     </g>
     <g id="text_2">
      <!-- 2 -->
      <g transform="translate(100.384795 266.33851) scale(0.1 -0.1)">
       <defs>
        <path id="DejaVuSans-32" d="M 1228 531 
L 3431 531 
L 3431 0 
L 469 0 
L 469 531 
Q 828 903 1448 1529 
Q 2069 2156 2228 2338 
Q 2531 2678 2651 2914 
Q 2772 3150 2772 3378 
Q 2772 3750 2511 3984 
Q 2250 4219 1831 4219 
Q 1534 4219 1204 4116 
Q 875 4013 500 3803 
L 500 4441 
Q 881 4594 1212 4672 
Q 1544 4750 1819 4750 
Q 2544 4750 2975 4387 
Q 3406 4025 3406 3419 
Q 3406 3131 3298 2873 
Q 3191 2616 2906 2266 
Q 2828 2175 2409 1742 
Q 1991 1309 1228 531 
z
" transform="scale(0.015625)"/>
       </defs>
       <use xlink:href="#DejaVuSans-32"/>
      </g>
     </g>
    </g>
    <g id="xtick_3">
     <g id="line2d_3">
      <g>
       <use xlink:href="#m5fb7d191b9" x="150.55152" y="251.740072" style="stroke: #000000; stroke-width: 0.8"/>
      </g>
     </g>
     <g id="text_3">
      <!-- 3 -->
      <g transform="translate(147.37027 266.33851) scale(0.1 -0.1)">
       <defs>
        <path id="DejaVuSans-33" d="M 2597 2516 
Q 3050 2419 3304 2112 
Q 3559 1806 3559 1356 
Q 3559 666 3084 287 
Q 2609 -91 1734 -91 
Q 1441 -91 1130 -33 
Q 819 25 488 141 
L 488 750 
Q 750 597 1062 519 
Q 1375 441 1716 441 
Q 2309 441 2620 675 
Q 2931 909 2931 1356 
Q 2931 1769 2642 2001 
Q 2353 2234 1838 2234 
L 1294 2234 
L 1294 2753 
L 1863 2753 
Q 2328 2753 2575 2939 
Q 2822 3125 2822 3475 
Q 2822 3834 2567 4026 
Q 2313 4219 1838 4219 
Q 1578 4219 1281 4162 
Q 984 4106 628 3988 
L 628 4550 
Q 988 4650 1302 4700 
Q 1616 4750 1894 4750 
Q 2613 4750 3031 4423 
Q 3450 4097 3450 3541 
Q 3450 3153 3228 2886 
Q 3006 2619 2597 2516 
z
" transform="scale(0.015625)"/>
       </defs>
       <use xlink:href="#DejaVuSans-33"/>
      </g>
     </g>
    </g>
    <g id="xtick_4">
     <g id="line2d_4">
      <g>
       <use xlink:href="#m5fb7d191b9" x="197.536995" y="251.740072" style="stroke: #000000; stroke-width: 0.8"/>
      </g>
     </g>
     <g id="text_4">
      <!-- 4 -->
      <g transform="translate(194.355745 266.33851) scale(0.1 -0.1)">
       <defs>
        <path id="DejaVuSans-34" d="M 2419 4116 
L 825 1625 
L 2419 1625 
L 2419 4116 
z
M 2253 4666 
L 3047 4666 
L 3047 1625 
L 3713 1625 
L 3713 1100 
L 3047 1100 
L 3047 0 
L 2419 0 
L 2419 1100 
L 313 1100 
L 313 1709 
L 2253 4666 
z
" transform="scale(0.015625)"/>
       </defs>
       <use xlink:href="#DejaVuSans-34"/>
      </g>
     </g>
    </g>
    <g id="xtick_5">
     <g id="line2d_5">
      <g>
       <use xlink:href="#m5fb7d191b9" x="244.52247" y="251.740072" style="stroke: #000000; stroke-width: 0.8"/>
      </g>
     </g>
     <g id="text_5">
      <!-- 5 -->
      <g transform="translate(241.34122 266.33851) scale(0.1 -0.1)">
       <defs>
        <path id="DejaVuSans-35" d="M 691 4666 
L 3169 4666 
L 3169 4134 
L 1269 4134 
L 1269 2991 
Q 1406 3038 1543 3061 
Q 1681 3084 1819 3084 
Q 2600 3084 3056 2656 
Q 3513 2228 3513 1497 
Q 3513 744 3044 326 
Q 2575 -91 1722 -91 
Q 1428 -91 1123 -41 
Q 819 9 494 109 
L 494 744 
Q 775 591 1075 516 
Q 1375 441 1709 441 
Q 2250 441 2565 725 
Q 2881 1009 2881 1497 
Q 2881 1984 2565 2268 
Q 2250 2553 1709 2553 
Q 1456 2553 1204 2497 
Q 953 2441 691 2322 
L 691 4666 
z
" transform="scale(0.015625)"/>
       </defs>
       <use xlink:href="#DejaVuSans-35"/>
      </g>
     </g>
    </g>
    <g id="xtick_6">
     <g id="line2d_6">
      <g>
       <use xlink:href="#m5fb7d191b9" x="291.507945" y="251.740072" style="stroke: #000000; stroke-width: 0.8"/>
      </g>
     </g>
     <g id="text_6">
      <!-- 6 -->
      <g transform="translate(288.326695 266.33851) scale(0.1 -0.1)">
       <defs>
        <path id="DejaVuSans-36" d="M 2113 2584 
Q 1688 2584 1439 2293 
Q 1191 2003 1191 1497 
Q 1191 994 1439 701 
Q 1688 409 2113 409 
Q 2538 409 2786 701 
Q 3034 994 3034 1497 
Q 3034 2003 2786 2293 
Q 2538 2584 2113 2584 
z
M 3366 4563 
L 3366 3988 
Q 3128 4100 2886 4159 
Q 2644 4219 2406 4219 
Q 1781 4219 1451 3797 
Q 1122 3375 1075 2522 
Q 1259 2794 1537 2939 
Q 1816 3084 2150 3084 
Q 2853 3084 3261 2657 
Q 3669 2231 3669 1497 
Q 3669 778 3244 343 
Q 2819 -91 2113 -91 
Q 1303 -91 875 529 
Q 447 1150 447 2328 
Q 447 3434 972 4092 
Q 1497 4750 2381 4750 
Q 2619 4750 2861 4703 
Q 3103 4656 3366 4563 
z
" transform="scale(0.015625)"/>
       </defs>
       <use xlink:href="#DejaVuSans-36"/>
      </g>
     </g>
    </g>
    <g id="xtick_7">
     <g id="line2d_7">
      <g>
       <use xlink:href="#m5fb7d191b9" x="338.49342" y="251.740072" style="stroke: #000000; stroke-width: 0.8"/>
      </g>
     </g>
     <g id="text_7">
      <!-- 7 -->
      <g transform="translate(335.31217 266.33851) scale(0.1 -0.1)">
       <defs>
        <path id="DejaVuSans-37" d="M 525 4666 
L 3525 4666 
L 3525 4397 
L 1831 0 
L 1172 0 
L 2766 4134 
L 525 4134 
L 525 4666 
z
" transform="scale(0.015625)"/>
       </defs>
       <use xlink:href="#DejaVuSans-37"/>
      </g>
     </g>
    </g>
    <g id="text_8">
     <!-- Mutation rate ($c$) -->
     <g transform="translate(135.331995 282.296166) scale(0.13 -0.13)">
      <defs>
       <path id="DejaVuSans-Bold-4d" d="M 588 4666 
L 2119 4666 
L 3181 2169 
L 4250 4666 
L 5778 4666 
L 5778 0 
L 4641 0 
L 4641 3413 
L 3566 897 
L 2803 897 
L 1728 3413 
L 1728 0 
L 588 0 
L 588 4666 
z
" transform="scale(0.015625)"/>
       <path id="DejaVuSans-Bold-75" d="M 500 1363 
L 500 3500 
L 1625 3500 
L 1625 3150 
Q 1625 2866 1622 2436 
Q 1619 2006 1619 1863 
Q 1619 1441 1641 1255 
Q 1663 1069 1716 984 
Q 1784 875 1895 815 
Q 2006 756 2150 756 
Q 2500 756 2700 1025 
Q 2900 1294 2900 1772 
L 2900 3500 
L 4019 3500 
L 4019 0 
L 2900 0 
L 2900 506 
Q 2647 200 2364 54 
Q 2081 -91 1741 -91 
Q 1134 -91 817 281 
Q 500 653 500 1363 
z
" transform="scale(0.015625)"/>
       <path id="DejaVuSans-Bold-74" d="M 1759 4494 
L 1759 3500 
L 2913 3500 
L 2913 2700 
L 1759 2700 
L 1759 1216 
Q 1759 972 1856 886 
Q 1953 800 2241 800 
L 2816 800 
L 2816 0 
L 1856 0 
Q 1194 0 917 276 
Q 641 553 641 1216 
L 641 2700 
L 84 2700 
L 84 3500 
L 641 3500 
L 641 4494 
L 1759 4494 
z
" transform="scale(0.015625)"/>
       <path id="DejaVuSans-Bold-61" d="M 2106 1575 
Q 1756 1575 1579 1456 
Q 1403 1338 1403 1106 
Q 1403 894 1545 773 
Q 1688 653 1941 653 
Q 2256 653 2472 879 
Q 2688 1106 2688 1447 
L 2688 1575 
L 2106 1575 
z
M 3816 1997 
L 3816 0 
L 2688 0 
L 2688 519 
Q 2463 200 2181 54 
Q 1900 -91 1497 -91 
Q 953 -91 614 226 
Q 275 544 275 1050 
Q 275 1666 698 1953 
Q 1122 2241 2028 2241 
L 2688 2241 
L 2688 2328 
Q 2688 2594 2478 2717 
Q 2269 2841 1825 2841 
Q 1466 2841 1156 2769 
Q 847 2697 581 2553 
L 581 3406 
Q 941 3494 1303 3539 
Q 1666 3584 2028 3584 
Q 2975 3584 3395 3211 
Q 3816 2838 3816 1997 
z
" transform="scale(0.015625)"/>
       <path id="DejaVuSans-Bold-69" d="M 538 3500 
L 1656 3500 
L 1656 0 
L 538 0 
L 538 3500 
z
M 538 4863 
L 1656 4863 
L 1656 3950 
L 538 3950 
L 538 4863 
z
" transform="scale(0.015625)"/>
       <path id="DejaVuSans-Bold-6f" d="M 2203 2784 
Q 1831 2784 1636 2517 
Q 1441 2250 1441 1747 
Q 1441 1244 1636 976 
Q 1831 709 2203 709 
Q 2569 709 2762 976 
Q 2956 1244 2956 1747 
Q 2956 2250 2762 2517 
Q 2569 2784 2203 2784 
z
M 2203 3584 
Q 3106 3584 3614 3096 
Q 4122 2609 4122 1747 
Q 4122 884 3614 396 
Q 3106 -91 2203 -91 
Q 1297 -91 786 396 
Q 275 884 275 1747 
Q 275 2609 786 3096 
Q 1297 3584 2203 3584 
z
" transform="scale(0.015625)"/>
       <path id="DejaVuSans-Bold-6e" d="M 4056 2131 
L 4056 0 
L 2931 0 
L 2931 347 
L 2931 1631 
Q 2931 2084 2911 2256 
Q 2891 2428 2841 2509 
Q 2775 2619 2662 2680 
Q 2550 2741 2406 2741 
Q 2056 2741 1856 2470 
Q 1656 2200 1656 1722 
L 1656 0 
L 538 0 
L 538 3500 
L 1656 3500 
L 1656 2988 
Q 1909 3294 2193 3439 
Q 2478 3584 2822 3584 
Q 3428 3584 3742 3212 
Q 4056 2841 4056 2131 
z
" transform="scale(0.015625)"/>
       <path id="DejaVuSans-Bold-20" transform="scale(0.015625)"/>
       <path id="DejaVuSans-Bold-72" d="M 3138 2547 
Q 2991 2616 2845 2648 
Q 2700 2681 2553 2681 
Q 2122 2681 1889 2404 
Q 1656 2128 1656 1613 
L 1656 0 
L 538 0 
L 538 3500 
L 1656 3500 
L 1656 2925 
Q 1872 3269 2151 3426 
Q 2431 3584 2822 3584 
Q 2878 3584 2943 3579 
Q 3009 3575 3134 3559 
L 3138 2547 
z
" transform="scale(0.015625)"/>
       <path id="DejaVuSans-Bold-65" d="M 4031 1759 
L 4031 1441 
L 1416 1441 
Q 1456 1047 1700 850 
Q 1944 653 2381 653 
Q 2734 653 3104 758 
Q 3475 863 3866 1075 
L 3866 213 
Q 3469 63 3072 -14 
Q 2675 -91 2278 -91 
Q 1328 -91 801 392 
Q 275 875 275 1747 
Q 275 2603 792 3093 
Q 1309 3584 2216 3584 
Q 3041 3584 3536 3087 
Q 4031 2591 4031 1759 
z
M 2881 2131 
Q 2881 2450 2695 2645 
Q 2509 2841 2209 2841 
Q 1884 2841 1681 2658 
Q 1478 2475 1428 2131 
L 2881 2131 
z
" transform="scale(0.015625)"/>
       <path id="DejaVuSans-Bold-28" d="M 2413 -844 
L 1484 -844 
Q 1006 -72 778 623 
Q 550 1319 550 2003 
Q 550 2688 779 3389 
Q 1009 4091 1484 4856 
L 2413 4856 
Q 2013 4116 1813 3408 
Q 1613 2700 1613 2009 
Q 1613 1319 1811 609 
Q 2009 -100 2413 -844 
z
" transform="scale(0.015625)"/>
       <path id="DejaVuSans-Oblique-63" d="M 3431 3366 
L 3316 2797 
Q 3109 2947 2876 3022 
Q 2644 3097 2394 3097 
Q 2119 3097 1870 3000 
Q 1622 2903 1453 2725 
Q 1184 2453 1037 2087 
Q 891 1722 891 1331 
Q 891 859 1127 628 
Q 1363 397 1844 397 
Q 2081 397 2348 469 
Q 2616 541 2906 684 
L 2797 116 
Q 2547 13 2283 -39 
Q 2019 -91 1741 -91 
Q 1044 -91 669 257 
Q 294 606 294 1253 
Q 294 1797 489 2255 
Q 684 2713 1069 3078 
Q 1331 3328 1684 3456 
Q 2038 3584 2456 3584 
Q 2700 3584 2940 3529 
Q 3181 3475 3431 3366 
z
" transform="scale(0.015625)"/>
       <path id="DejaVuSans-Bold-29" d="M 513 -844 
Q 913 -100 1113 609 
Q 1313 1319 1313 2009 
Q 1313 2700 1113 3408 
Q 913 4116 513 4856 
L 1441 4856 
Q 1916 4091 2145 3389 
Q 2375 2688 2375 2003 
Q 2375 1319 2147 623 
Q 1919 -72 1441 -844 
L 513 -844 
z
" transform="scale(0.015625)"/>
      </defs>
      <use xlink:href="#DejaVuSans-Bold-4d" transform="translate(0 0.015625)"/>
      <use xlink:href="#DejaVuSans-Bold-75" transform="translate(99.511719 0.015625)"/>
      <use xlink:href="#DejaVuSans-Bold-74" transform="translate(170.703125 0.015625)"/>
      <use xlink:href="#DejaVuSans-Bold-61" transform="translate(218.505859 0.015625)"/>
      <use xlink:href="#DejaVuSans-Bold-74" transform="translate(285.986328 0.015625)"/>
      <use xlink:href="#DejaVuSans-Bold-69" transform="translate(333.789062 0.015625)"/>
      <use xlink:href="#DejaVuSans-Bold-6f" transform="translate(368.066406 0.015625)"/>
      <use xlink:href="#DejaVuSans-Bold-6e" transform="translate(436.767578 0.015625)"/>
      <use xlink:href="#DejaVuSans-Bold-20" transform="translate(507.958984 0.015625)"/>
      <use xlink:href="#DejaVuSans-Bold-72" transform="translate(542.773438 0.015625)"/>
      <use xlink:href="#DejaVuSans-Bold-61" transform="translate(592.089844 0.015625)"/>
      <use xlink:href="#DejaVuSans-Bold-74" transform="translate(659.570312 0.015625)"/>
      <use xlink:href="#DejaVuSans-Bold-65" transform="translate(707.373047 0.015625)"/>
      <use xlink:href="#DejaVuSans-Bold-20" transform="translate(775.195312 0.015625)"/>
      <use xlink:href="#DejaVuSans-Bold-28" transform="translate(810.009766 0.015625)"/>
      <use xlink:href="#DejaVuSans-Oblique-63" transform="translate(855.712891 0.015625)"/>
      <use xlink:href="#DejaVuSans-Bold-29" transform="translate(910.693359 0.015625)"/>
     </g>
    </g>
   </g>
   <g id="matplotlib.axis_2">
    <g id="ytick_1">
     <g id="line2d_8">
      <defs>
       <path id="m59da4c6ccd" d="M 0 0 
L -3.5 0 
" style="stroke: #000000; stroke-width: 0.8"/>
      </defs>
      <g>
       <use xlink:href="#m59da4c6ccd" x="42.484928" y="245.229921" style="stroke: #000000; stroke-width: 0.8"/>
      </g>
     </g>
     <g id="text_9">
      <!-- 0.0 -->
      <g transform="translate(19.581803 249.029139) scale(0.1 -0.1)">
       <defs>
        <path id="DejaVuSans-30" d="M 2034 4250 
Q 1547 4250 1301 3770 
Q 1056 3291 1056 2328 
Q 1056 1369 1301 889 
Q 1547 409 2034 409 
Q 2525 409 2770 889 
Q 3016 1369 3016 2328 
Q 3016 3291 2770 3770 
Q 2525 4250 2034 4250 
z
M 2034 4750 
Q 2819 4750 3233 4129 
Q 3647 3509 3647 2328 
Q 3647 1150 3233 529 
Q 2819 -91 2034 -91 
Q 1250 -91 836 529 
Q 422 1150 422 2328 
Q 422 3509 836 4129 
Q 1250 4750 2034 4750 
z
" transform="scale(0.015625)"/>
        <path id="DejaVuSans-2e" d="M 684 794 
L 1344 794 
L 1344 0 
L 684 0 
L 684 794 
z
" transform="scale(0.015625)"/>
       </defs>
       <use xlink:href="#DejaVuSans-30"/>
       <use xlink:href="#DejaVuSans-2e" x="63.623047"/>
       <use xlink:href="#DejaVuSans-30" x="95.410156"/>
      </g>
     </g>
    </g>
    <g id="ytick_2">
     <g id="line2d_9">
      <g>
       <use xlink:href="#m59da4c6ccd" x="42.484928" y="215.192183" style="stroke: #000000; stroke-width: 0.8"/>
      </g>
     </g>
     <g id="text_10">
      <!-- 0.1 -->
      <g transform="translate(19.581803 218.991401) scale(0.1 -0.1)">
       <use xlink:href="#DejaVuSans-30"/>
       <use xlink:href="#DejaVuSans-2e" x="63.623047"/>
       <use xlink:href="#DejaVuSans-31" x="95.410156"/>
      </g>
     </g>
    </g>
    <g id="ytick_3">
     <g id="line2d_10">
      <g>
       <use xlink:href="#m59da4c6ccd" x="42.484928" y="185.154445" style="stroke: #000000; stroke-width: 0.8"/>
      </g>
     </g>
     <g id="text_11">
      <!-- 0.2 -->
      <g transform="translate(19.581803 188.953663) scale(0.1 -0.1)">
       <use xlink:href="#DejaVuSans-30"/>
       <use xlink:href="#DejaVuSans-2e" x="63.623047"/>
       <use xlink:href="#DejaVuSans-32" x="95.410156"/>
      </g>
     </g>
    </g>
    <g id="ytick_4">
     <g id="line2d_11">
      <g>
       <use xlink:href="#m59da4c6ccd" x="42.484928" y="155.116707" style="stroke: #000000; stroke-width: 0.8"/>
      </g>
     </g>
     <g id="text_12">
      <!-- 0.3 -->
      <g transform="translate(19.581803 158.915925) scale(0.1 -0.1)">
       <use xlink:href="#DejaVuSans-30"/>
       <use xlink:href="#DejaVuSans-2e" x="63.623047"/>
       <use xlink:href="#DejaVuSans-33" x="95.410156"/>
      </g>
     </g>
    </g>
    <g id="ytick_5">
     <g id="line2d_12">
      <g>
       <use xlink:href="#m59da4c6ccd" x="42.484928" y="125.078969" style="stroke: #000000; stroke-width: 0.8"/>
      </g>
     </g>
     <g id="text_13">
      <!-- 0.4 -->
      <g transform="translate(19.581803 128.878187) scale(0.1 -0.1)">
       <use xlink:href="#DejaVuSans-30"/>
       <use xlink:href="#DejaVuSans-2e" x="63.623047"/>
       <use xlink:href="#DejaVuSans-34" x="95.410156"/>
      </g>
     </g>
    </g>
    <g id="ytick_6">
     <g id="line2d_13">
      <g>
       <use xlink:href="#m59da4c6ccd" x="42.484928" y="95.04123" style="stroke: #000000; stroke-width: 0.8"/>
      </g>
     </g>
     <g id="text_14">
      <!-- 0.5 -->
      <g transform="translate(19.581803 98.840449) scale(0.1 -0.1)">
       <use xlink:href="#DejaVuSans-30"/>
       <use xlink:href="#DejaVuSans-2e" x="63.623047"/>
       <use xlink:href="#DejaVuSans-35" x="95.410156"/>
      </g>
     </g>
    </g>
    <g id="ytick_7">
     <g id="line2d_14">
      <g>
       <use xlink:href="#m59da4c6ccd" x="42.484928" y="65.003492" style="stroke: #000000; stroke-width: 0.8"/>
      </g>
     </g>
     <g id="text_15">
      <!-- 0.6 -->
      <g transform="translate(19.581803 68.802711) scale(0.1 -0.1)">
       <use xlink:href="#DejaVuSans-30"/>
       <use xlink:href="#DejaVuSans-2e" x="63.623047"/>
       <use xlink:href="#DejaVuSans-36" x="95.410156"/>
      </g>
     </g>
    </g>
    <g id="ytick_8">
     <g id="line2d_15">
      <g>
       <use xlink:href="#m59da4c6ccd" x="42.484928" y="34.965754" style="stroke: #000000; stroke-width: 0.8"/>
      </g>
     </g>
     <g id="text_16">
      <!-- 0.7 -->
      <g transform="translate(19.581803 38.764973) scale(0.1 -0.1)">
       <use xlink:href="#DejaVuSans-30"/>
       <use xlink:href="#DejaVuSans-2e" x="63.623047"/>
       <use xlink:href="#DejaVuSans-37" x="95.410156"/>
      </g>
     </g>
    </g>
    <g id="text_17">
     <!-- Success ratio -->
     <g transform="translate(12.878209 185.644844) rotate(-90) scale(0.13 -0.13)">
      <defs>
       <path id="DejaVuSans-Bold-53" d="M 3834 4519 
L 3834 3531 
Q 3450 3703 3084 3790 
Q 2719 3878 2394 3878 
Q 1963 3878 1756 3759 
Q 1550 3641 1550 3391 
Q 1550 3203 1689 3098 
Q 1828 2994 2194 2919 
L 2706 2816 
Q 3484 2659 3812 2340 
Q 4141 2022 4141 1434 
Q 4141 663 3683 286 
Q 3225 -91 2284 -91 
Q 1841 -91 1394 -6 
Q 947 78 500 244 
L 500 1259 
Q 947 1022 1364 901 
Q 1781 781 2169 781 
Q 2563 781 2772 912 
Q 2981 1044 2981 1288 
Q 2981 1506 2839 1625 
Q 2697 1744 2272 1838 
L 1806 1941 
Q 1106 2091 782 2419 
Q 459 2747 459 3303 
Q 459 4000 909 4375 
Q 1359 4750 2203 4750 
Q 2588 4750 2994 4692 
Q 3400 4634 3834 4519 
z
" transform="scale(0.015625)"/>
       <path id="DejaVuSans-Bold-63" d="M 3366 3391 
L 3366 2478 
Q 3138 2634 2908 2709 
Q 2678 2784 2431 2784 
Q 1963 2784 1702 2511 
Q 1441 2238 1441 1747 
Q 1441 1256 1702 982 
Q 1963 709 2431 709 
Q 2694 709 2930 787 
Q 3166 866 3366 1019 
L 3366 103 
Q 3103 6 2833 -42 
Q 2563 -91 2291 -91 
Q 1344 -91 809 395 
Q 275 881 275 1747 
Q 275 2613 809 3098 
Q 1344 3584 2291 3584 
Q 2566 3584 2833 3536 
Q 3100 3488 3366 3391 
z
" transform="scale(0.015625)"/>
       <path id="DejaVuSans-Bold-73" d="M 3272 3391 
L 3272 2541 
Q 2913 2691 2578 2766 
Q 2244 2841 1947 2841 
Q 1628 2841 1473 2761 
Q 1319 2681 1319 2516 
Q 1319 2381 1436 2309 
Q 1553 2238 1856 2203 
L 2053 2175 
Q 2913 2066 3209 1816 
Q 3506 1566 3506 1031 
Q 3506 472 3093 190 
Q 2681 -91 1863 -91 
Q 1516 -91 1145 -36 
Q 775 19 384 128 
L 384 978 
Q 719 816 1070 734 
Q 1422 653 1784 653 
Q 2113 653 2278 743 
Q 2444 834 2444 1013 
Q 2444 1163 2330 1236 
Q 2216 1309 1875 1350 
L 1678 1375 
Q 931 1469 631 1722 
Q 331 1975 331 2491 
Q 331 3047 712 3315 
Q 1094 3584 1881 3584 
Q 2191 3584 2531 3537 
Q 2872 3491 3272 3391 
z
" transform="scale(0.015625)"/>
      </defs>
      <use xlink:href="#DejaVuSans-Bold-53"/>
      <use xlink:href="#DejaVuSans-Bold-75" x="72.021484"/>
      <use xlink:href="#DejaVuSans-Bold-63" x="143.212891"/>
      <use xlink:href="#DejaVuSans-Bold-63" x="202.490234"/>
      <use xlink:href="#DejaVuSans-Bold-65" x="261.767578"/>
      <use xlink:href="#DejaVuSans-Bold-73" x="329.589844"/>
      <use xlink:href="#DejaVuSans-Bold-73" x="389.111328"/>
      <use xlink:href="#DejaVuSans-Bold-20" x="448.632812"/>
      <use xlink:href="#DejaVuSans-Bold-72" x="483.447266"/>
      <use xlink:href="#DejaVuSans-Bold-61" x="532.763672"/>
      <use xlink:href="#DejaVuSans-Bold-74" x="600.244141"/>
      <use xlink:href="#DejaVuSans-Bold-69" x="648.046875"/>
      <use xlink:href="#DejaVuSans-Bold-6f" x="682.324219"/>
     </g>
    </g>
   </g>
   <g id="line2d_16">
    <path d="M 56.58057 58.563501 
L 65.977665 90.548092 
L 75.37476 32.364061 
L 84.771855 88.183538 
L 94.16895 102.768674 
L 103.566045 188.967768 
L 112.96314 201.441837 
L 122.360235 185.459936 
L 131.75733 213.663814 
L 141.154425 210.517062 
L 150.55152 230.631866 
L 159.948615 221.565747 
L 169.34571 230.832185 
L 178.742805 227.176329 
L 188.1399 237.452397 
L 197.536995 232.694013 
L 206.93409 238.235525 
L 216.331185 235.257374 
L 225.72828 234.620962 
L 235.125375 235.988079 
L 244.52247 238.611088 
L 253.919565 240.360799 
L 263.31666 234.938619 
L 272.713755 236.972983 
L 282.11085 237.91233 
L 291.507945 237.744702 
L 300.90504 241.293596 
L 310.302135 235.717627 
L 319.69923 229.45665 
L 329.096325 229.359533 
L 338.49342 234.112688 
" clip-path="url(#p99305c2f4c)" style="fill: none; stroke: #00bfff; stroke-width: 1.5; stroke-linecap: square"/>
    <defs>
     <path id="m12bd8b7d09" d="M 0 3 
C 0.795609 3 1.55874 2.683901 2.12132 2.12132 
C 2.683901 1.55874 3 0.795609 3 0 
C 3 -0.795609 2.683901 -1.55874 2.12132 -2.12132 
C 1.55874 -2.683901 0.795609 -3 0 -3 
C -0.795609 -3 -1.55874 -2.683901 -2.12132 -2.12132 
C -2.683901 -1.55874 -3 -0.795609 -3 0 
C -3 0.795609 -2.683901 1.55874 -2.12132 2.12132 
C -1.55874 2.683901 -0.795609 3 0 3 
z
" style="stroke: #00bfff"/>
    </defs>
    <g clip-path="url(#p99305c2f4c)">
     <use xlink:href="#m12bd8b7d09" x="56.58057" y="58.563501" style="fill: #00bfff; stroke: #00bfff"/>
     <use xlink:href="#m12bd8b7d09" x="65.977665" y="90.548092" style="fill: #00bfff; stroke: #00bfff"/>
     <use xlink:href="#m12bd8b7d09" x="75.37476" y="32.364061" style="fill: #00bfff; stroke: #00bfff"/>
     <use xlink:href="#m12bd8b7d09" x="84.771855" y="88.183538" style="fill: #00bfff; stroke: #00bfff"/>
     <use xlink:href="#m12bd8b7d09" x="94.16895" y="102.768674" style="fill: #00bfff; stroke: #00bfff"/>
     <use xlink:href="#m12bd8b7d09" x="103.566045" y="188.967768" style="fill: #00bfff; stroke: #00bfff"/>
     <use xlink:href="#m12bd8b7d09" x="112.96314" y="201.441837" style="fill: #00bfff; stroke: #00bfff"/>
     <use xlink:href="#m12bd8b7d09" x="122.360235" y="185.459936" style="fill: #00bfff; stroke: #00bfff"/>
     <use xlink:href="#m12bd8b7d09" x="131.75733" y="213.663814" style="fill: #00bfff; stroke: #00bfff"/>
     <use xlink:href="#m12bd8b7d09" x="141.154425" y="210.517062" style="fill: #00bfff; stroke: #00bfff"/>
     <use xlink:href="#m12bd8b7d09" x="150.55152" y="230.631866" style="fill: #00bfff; stroke: #00bfff"/>
     <use xlink:href="#m12bd8b7d09" x="159.948615" y="221.565747" style="fill: #00bfff; stroke: #00bfff"/>
     <use xlink:href="#m12bd8b7d09" x="169.34571" y="230.832185" style="fill: #00bfff; stroke: #00bfff"/>
     <use xlink:href="#m12bd8b7d09" x="178.742805" y="227.176329" style="fill: #00bfff; stroke: #00bfff"/>
     <use xlink:href="#m12bd8b7d09" x="188.1399" y="237.452397" style="fill: #00bfff; stroke: #00bfff"/>
     <use xlink:href="#m12bd8b7d09" x="197.536995" y="232.694013" style="fill: #00bfff; stroke: #00bfff"/>
     <use xlink:href="#m12bd8b7d09" x="206.93409" y="238.235525" style="fill: #00bfff; stroke: #00bfff"/>
     <use xlink:href="#m12bd8b7d09" x="216.331185" y="235.257374" style="fill: #00bfff; stroke: #00bfff"/>
     <use xlink:href="#m12bd8b7d09" x="225.72828" y="234.620962" style="fill: #00bfff; stroke: #00bfff"/>
     <use xlink:href="#m12bd8b7d09" x="235.125375" y="235.988079" style="fill: #00bfff; stroke: #00bfff"/>
     <use xlink:href="#m12bd8b7d09" x="244.52247" y="238.611088" style="fill: #00bfff; stroke: #00bfff"/>
     <use xlink:href="#m12bd8b7d09" x="253.919565" y="240.360799" style="fill: #00bfff; stroke: #00bfff"/>
     <use xlink:href="#m12bd8b7d09" x="263.31666" y="234.938619" style="fill: #00bfff; stroke: #00bfff"/>
     <use xlink:href="#m12bd8b7d09" x="272.713755" y="236.972983" style="fill: #00bfff; stroke: #00bfff"/>
     <use xlink:href="#m12bd8b7d09" x="282.11085" y="237.91233" style="fill: #00bfff; stroke: #00bfff"/>
     <use xlink:href="#m12bd8b7d09" x="291.507945" y="237.744702" style="fill: #00bfff; stroke: #00bfff"/>
     <use xlink:href="#m12bd8b7d09" x="300.90504" y="241.293596" style="fill: #00bfff; stroke: #00bfff"/>
     <use xlink:href="#m12bd8b7d09" x="310.302135" y="235.717627" style="fill: #00bfff; stroke: #00bfff"/>
     <use xlink:href="#m12bd8b7d09" x="319.69923" y="229.45665" style="fill: #00bfff; stroke: #00bfff"/>
     <use xlink:href="#m12bd8b7d09" x="329.096325" y="229.359533" style="fill: #00bfff; stroke: #00bfff"/>
     <use xlink:href="#m12bd8b7d09" x="338.49342" y="234.112688" style="fill: #00bfff; stroke: #00bfff"/>
    </g>
   </g>
   <g id="patch_3">
    <path d="M 42.484928 251.740072 
L 42.484928 21.917584 
" style="fill: none; stroke: #000000; stroke-width: 0.8; stroke-linejoin: miter; stroke-linecap: square"/>
   </g>
   <g id="patch_4">
    <path d="M 42.484928 251.740072 
L 352.589063 251.740072 
" style="fill: none; stroke: #000000; stroke-width: 0.8; stroke-linejoin: miter; stroke-linecap: square"/>
   </g>
   <g id="text_18">
    <!-- (a) -->
    <g transform="translate(184.031292 15.917584) scale(0.17 -0.17)">
     <use xlink:href="#DejaVuSans-Bold-28"/>
     <use xlink:href="#DejaVuSans-Bold-61" x="45.703125"/>
     <use xlink:href="#DejaVuSans-Bold-29" x="113.183594"/>
    </g>
   </g>
  </g>
  <g id="axes_2">
   <g id="patch_5">
    <path d="M 406.895625 251.740072 
L 716.99976 251.740072 
L 716.99976 21.917584 
L 406.895625 21.917584 
z
" style="fill: #ffffff"/>
   </g>
   <g id="patch_6">
    <path d="M 420.991267 251.740072 
L 430.882946 251.740072 
L 430.882946 142.300792 
L 420.991267 142.300792 
z
" clip-path="url(#p115ce41557)" style="fill: #1f77b4"/>
   </g>
   <g id="patch_7">
    <path d="M 433.355866 251.740072 
L 443.247545 251.740072 
L 443.247545 87.581152 
L 433.355866 87.581152 
z
" clip-path="url(#p115ce41557)" style="fill: #1f77b4"/>
   </g>
   <g id="patch_8">
    <path d="M 445.720465 251.740072 
L 455.612144 251.740072 
L 455.612144 41.981452 
L 445.720465 41.981452 
z
" clip-path="url(#p115ce41557)" style="fill: #1f77b4"/>
   </g>
   <g id="patch_9">
    <path d="M 458.085064 251.740072 
L 467.976743 251.740072 
L 467.976743 78.461212 
L 458.085064 78.461212 
z
" clip-path="url(#p115ce41557)" style="fill: #1f77b4"/>
   </g>
   <g id="patch_10">
    <path d="M 470.449662 251.740072 
L 480.341341 251.740072 
L 480.341341 78.461212 
L 470.449662 78.461212 
z
" clip-path="url(#p115ce41557)" style="fill: #1f77b4"/>
   </g>
   <g id="patch_11">
    <path d="M 482.814261 251.740072 
L 492.70594 251.740072 
L 492.70594 32.861512 
L 482.814261 32.861512 
z
" clip-path="url(#p115ce41557)" style="fill: #1f77b4"/>
   </g>
   <g id="patch_12">
    <path d="M 495.17886 251.740072 
L 505.070539 251.740072 
L 505.070539 142.300792 
L 495.17886 142.300792 
z
" clip-path="url(#p115ce41557)" style="fill: #1f77b4"/>
   </g>
   <g id="patch_13">
    <path d="M 507.543458 251.740072 
L 517.435137 251.740072 
L 517.435137 187.900492 
L 507.543458 187.900492 
z
" clip-path="url(#p115ce41557)" style="fill: #1f77b4"/>
   </g>
   <g id="patch_14">
    <path d="M 519.908057 251.740072 
L 529.799736 251.740072 
L 529.799736 215.260312 
L 519.908057 215.260312 
z
" clip-path="url(#p115ce41557)" style="fill: #1f77b4"/>
   </g>
   <g id="patch_15">
    <path d="M 532.272656 251.740072 
L 542.164335 251.740072 
L 542.164335 242.620132 
L 532.272656 242.620132 
z
" clip-path="url(#p115ce41557)" style="fill: #1f77b4"/>
   </g>
   <g id="patch_16">
    <path d="M 544.637254 251.740072 
L 554.528933 251.740072 
L 554.528933 242.620132 
L 544.637254 242.620132 
z
" clip-path="url(#p115ce41557)" style="fill: #1f77b4"/>
   </g>
   <g id="patch_17">
    <path d="M 557.001853 251.740072 
L 566.893532 251.740072 
L 566.893532 242.620132 
L 557.001853 242.620132 
z
" clip-path="url(#p115ce41557)" style="fill: #1f77b4"/>
   </g>
   <g id="patch_18">
    <path d="M 569.366452 251.740072 
L 579.258131 251.740072 
L 579.258131 242.620132 
L 569.366452 242.620132 
z
" clip-path="url(#p115ce41557)" style="fill: #1f77b4"/>
   </g>
   <g id="patch_19">
    <path d="M 594.095649 251.740072 
L 603.987328 251.740072 
L 603.987328 242.620132 
L 594.095649 242.620132 
z
" clip-path="url(#p115ce41557)" style="fill: #1f77b4"/>
   </g>
   <g id="patch_20">
    <path d="M 618.824846 251.740072 
L 628.716525 251.740072 
L 628.716525 242.620132 
L 618.824846 242.620132 
z
" clip-path="url(#p115ce41557)" style="fill: #1f77b4"/>
   </g>
   <g id="patch_21">
    <path d="M 631.189445 251.740072 
L 641.081124 251.740072 
L 641.081124 233.500192 
L 631.189445 233.500192 
z
" clip-path="url(#p115ce41557)" style="fill: #1f77b4"/>
   </g>
   <g id="patch_22">
    <path d="M 643.554044 251.740072 
L 653.445723 251.740072 
L 653.445723 242.620132 
L 643.554044 242.620132 
z
" clip-path="url(#p115ce41557)" style="fill: #1f77b4"/>
   </g>
   <g id="patch_23">
    <path d="M 655.918642 251.740072 
L 665.810321 251.740072 
L 665.810321 242.620132 
L 655.918642 242.620132 
z
" clip-path="url(#p115ce41557)" style="fill: #1f77b4"/>
   </g>
   <g id="patch_24">
    <path d="M 680.64784 251.740072 
L 690.539519 251.740072 
L 690.539519 242.620132 
L 680.64784 242.620132 
z
" clip-path="url(#p115ce41557)" style="fill: #1f77b4"/>
   </g>
   <g id="patch_25">
    <path d="M 693.012439 251.740072 
L 702.904117 251.740072 
L 702.904117 242.620132 
L 693.012439 242.620132 
z
" clip-path="url(#p115ce41557)" style="fill: #1f77b4"/>
   </g>
   <g id="matplotlib.axis_3">
    <g id="xtick_8">
     <g id="line2d_17">
      <g>
       <use xlink:href="#m5fb7d191b9" x="413.572508" y="251.740072" style="stroke: #000000; stroke-width: 0.8"/>
      </g>
     </g>
     <g id="text_19">
      <!-- 5 -->
      <g transform="translate(410.391258 266.33851) scale(0.1 -0.1)">
       <use xlink:href="#DejaVuSans-35"/>
      </g>
     </g>
    </g>
    <g id="xtick_9">
     <g id="line2d_18">
      <g>
       <use xlink:href="#m5fb7d191b9" x="475.395502" y="251.740072" style="stroke: #000000; stroke-width: 0.8"/>
      </g>
     </g>
     <g id="text_20">
      <!-- 10 -->
      <g transform="translate(469.033002 266.33851) scale(0.1 -0.1)">
       <use xlink:href="#DejaVuSans-31"/>
       <use xlink:href="#DejaVuSans-30" x="63.623047"/>
      </g>
     </g>
    </g>
    <g id="xtick_10">
     <g id="line2d_19">
      <g>
       <use xlink:href="#m5fb7d191b9" x="537.218495" y="251.740072" style="stroke: #000000; stroke-width: 0.8"/>
      </g>
     </g>
     <g id="text_21">
      <!-- 15 -->
      <g transform="translate(530.855995 266.33851) scale(0.1 -0.1)">
       <use xlink:href="#DejaVuSans-31"/>
       <use xlink:href="#DejaVuSans-35" x="63.623047"/>
      </g>
     </g>
    </g>
    <g id="xtick_11">
     <g id="line2d_20">
      <g>
       <use xlink:href="#m5fb7d191b9" x="599.041489" y="251.740072" style="stroke: #000000; stroke-width: 0.8"/>
      </g>
     </g>
     <g id="text_22">
      <!-- 20 -->
      <g transform="translate(592.678989 266.33851) scale(0.1 -0.1)">
       <use xlink:href="#DejaVuSans-32"/>
       <use xlink:href="#DejaVuSans-30" x="63.623047"/>
      </g>
     </g>
    </g>
    <g id="xtick_12">
     <g id="line2d_21">
      <g>
       <use xlink:href="#m5fb7d191b9" x="660.864482" y="251.740072" style="stroke: #000000; stroke-width: 0.8"/>
      </g>
     </g>
     <g id="text_23">
      <!-- 25 -->
      <g transform="translate(654.501982 266.33851) scale(0.1 -0.1)">
       <use xlink:href="#DejaVuSans-32"/>
       <use xlink:href="#DejaVuSans-35" x="63.623047"/>
      </g>
     </g>
    </g>
    <g id="text_24">
     <!-- Number of moves -->
     <g transform="translate(497.26863 282.296166) scale(0.13 -0.13)">
      <defs>
       <path id="DejaVuSans-Bold-4e" d="M 588 4666 
L 1931 4666 
L 3628 1466 
L 3628 4666 
L 4769 4666 
L 4769 0 
L 3425 0 
L 1728 3200 
L 1728 0 
L 588 0 
L 588 4666 
z
" transform="scale(0.015625)"/>
       <path id="DejaVuSans-Bold-6d" d="M 3781 2919 
Q 3994 3244 4286 3414 
Q 4578 3584 4928 3584 
Q 5531 3584 5847 3212 
Q 6163 2841 6163 2131 
L 6163 0 
L 5038 0 
L 5038 1825 
Q 5041 1866 5042 1909 
Q 5044 1953 5044 2034 
Q 5044 2406 4934 2573 
Q 4825 2741 4581 2741 
Q 4263 2741 4089 2478 
Q 3916 2216 3909 1719 
L 3909 0 
L 2784 0 
L 2784 1825 
Q 2784 2406 2684 2573 
Q 2584 2741 2328 2741 
Q 2006 2741 1831 2477 
Q 1656 2213 1656 1722 
L 1656 0 
L 531 0 
L 531 3500 
L 1656 3500 
L 1656 2988 
Q 1863 3284 2130 3434 
Q 2397 3584 2719 3584 
Q 3081 3584 3359 3409 
Q 3638 3234 3781 2919 
z
" transform="scale(0.015625)"/>
       <path id="DejaVuSans-Bold-62" d="M 2400 722 
Q 2759 722 2948 984 
Q 3138 1247 3138 1747 
Q 3138 2247 2948 2509 
Q 2759 2772 2400 2772 
Q 2041 2772 1848 2508 
Q 1656 2244 1656 1747 
Q 1656 1250 1848 986 
Q 2041 722 2400 722 
z
M 1656 2988 
Q 1888 3294 2169 3439 
Q 2450 3584 2816 3584 
Q 3463 3584 3878 3070 
Q 4294 2556 4294 1747 
Q 4294 938 3878 423 
Q 3463 -91 2816 -91 
Q 2450 -91 2169 54 
Q 1888 200 1656 506 
L 1656 0 
L 538 0 
L 538 4863 
L 1656 4863 
L 1656 2988 
z
" transform="scale(0.015625)"/>
       <path id="DejaVuSans-Bold-66" d="M 2841 4863 
L 2841 4128 
L 2222 4128 
Q 1984 4128 1890 4042 
Q 1797 3956 1797 3744 
L 1797 3500 
L 2753 3500 
L 2753 2700 
L 1797 2700 
L 1797 0 
L 678 0 
L 678 2700 
L 122 2700 
L 122 3500 
L 678 3500 
L 678 3744 
Q 678 4316 997 4589 
Q 1316 4863 1984 4863 
L 2841 4863 
z
" transform="scale(0.015625)"/>
       <path id="DejaVuSans-Bold-76" d="M 97 3500 
L 1216 3500 
L 2088 1081 
L 2956 3500 
L 4078 3500 
L 2700 0 
L 1472 0 
L 97 3500 
z
" transform="scale(0.015625)"/>
      </defs>
      <use xlink:href="#DejaVuSans-Bold-4e"/>
      <use xlink:href="#DejaVuSans-Bold-75" x="83.691406"/>
      <use xlink:href="#DejaVuSans-Bold-6d" x="154.882812"/>
      <use xlink:href="#DejaVuSans-Bold-62" x="259.082031"/>
      <use xlink:href="#DejaVuSans-Bold-65" x="330.664062"/>
      <use xlink:href="#DejaVuSans-Bold-72" x="398.486328"/>
      <use xlink:href="#DejaVuSans-Bold-20" x="447.802734"/>
      <use xlink:href="#DejaVuSans-Bold-6f" x="482.617188"/>
      <use xlink:href="#DejaVuSans-Bold-66" x="551.318359"/>
      <use xlink:href="#DejaVuSans-Bold-20" x="594.824219"/>
      <use xlink:href="#DejaVuSans-Bold-6d" x="629.638672"/>
      <use xlink:href="#DejaVuSans-Bold-6f" x="733.837891"/>
      <use xlink:href="#DejaVuSans-Bold-76" x="802.539062"/>
      <use xlink:href="#DejaVuSans-Bold-65" x="867.724609"/>
      <use xlink:href="#DejaVuSans-Bold-73" x="935.546875"/>
     </g>
    </g>
   </g>
   <g id="matplotlib.axis_4">
    <g id="ytick_9">
     <g id="line2d_22">
      <g>
       <use xlink:href="#m59da4c6ccd" x="406.895625" y="251.740072" style="stroke: #000000; stroke-width: 0.8"/>
      </g>
     </g>
     <g id="text_25">
      <!-- 0 -->
      <g transform="translate(393.533125 255.539291) scale(0.1 -0.1)">
       <use xlink:href="#DejaVuSans-30"/>
      </g>
     </g>
    </g>
    <g id="ytick_10">
     <g id="line2d_23">
      <g>
       <use xlink:href="#m59da4c6ccd" x="406.895625" y="206.140372" style="stroke: #000000; stroke-width: 0.8"/>
      </g>
     </g>
     <g id="text_26">
      <!-- 5 -->
      <g transform="translate(393.533125 209.939591) scale(0.1 -0.1)">
       <use xlink:href="#DejaVuSans-35"/>
      </g>
     </g>
    </g>
    <g id="ytick_11">
     <g id="line2d_24">
      <g>
       <use xlink:href="#m59da4c6ccd" x="406.895625" y="160.540672" style="stroke: #000000; stroke-width: 0.8"/>
      </g>
     </g>
     <g id="text_27">
      <!-- 10 -->
      <g transform="translate(387.170625 164.339891) scale(0.1 -0.1)">
       <use xlink:href="#DejaVuSans-31"/>
       <use xlink:href="#DejaVuSans-30" x="63.623047"/>
      </g>
     </g>
    </g>
    <g id="ytick_12">
     <g id="line2d_25">
      <g>
       <use xlink:href="#m59da4c6ccd" x="406.895625" y="114.940972" style="stroke: #000000; stroke-width: 0.8"/>
      </g>
     </g>
     <g id="text_28">
      <!-- 15 -->
      <g transform="translate(387.170625 118.740191) scale(0.1 -0.1)">
       <use xlink:href="#DejaVuSans-31"/>
       <use xlink:href="#DejaVuSans-35" x="63.623047"/>
      </g>
     </g>
    </g>
    <g id="ytick_13">
     <g id="line2d_26">
      <g>
       <use xlink:href="#m59da4c6ccd" x="406.895625" y="69.341272" style="stroke: #000000; stroke-width: 0.8"/>
      </g>
     </g>
     <g id="text_29">
      <!-- 20 -->
      <g transform="translate(387.170625 73.140491) scale(0.1 -0.1)">
       <use xlink:href="#DejaVuSans-32"/>
       <use xlink:href="#DejaVuSans-30" x="63.623047"/>
      </g>
     </g>
    </g>
    <g id="ytick_14">
     <g id="line2d_27">
      <g>
       <use xlink:href="#m59da4c6ccd" x="406.895625" y="23.741572" style="stroke: #000000; stroke-width: 0.8"/>
      </g>
     </g>
     <g id="text_30">
      <!-- 25 -->
      <g transform="translate(387.170625 27.540791) scale(0.1 -0.1)">
       <use xlink:href="#DejaVuSans-32"/>
       <use xlink:href="#DejaVuSans-35" x="63.623047"/>
      </g>
     </g>
    </g>
    <g id="text_31">
     <!-- Frequencies -->
     <g transform="translate(380.467031 181.143594) rotate(-90) scale(0.13 -0.13)">
      <defs>
       <path id="DejaVuSans-Bold-46" d="M 588 4666 
L 3834 4666 
L 3834 3756 
L 1791 3756 
L 1791 2888 
L 3713 2888 
L 3713 1978 
L 1791 1978 
L 1791 0 
L 588 0 
L 588 4666 
z
" transform="scale(0.015625)"/>
       <path id="DejaVuSans-Bold-71" d="M 2181 2772 
Q 1825 2772 1636 2509 
Q 1447 2247 1447 1747 
Q 1447 1247 1636 984 
Q 1825 722 2181 722 
Q 2541 722 2730 984 
Q 2919 1247 2919 1747 
Q 2919 2247 2730 2509 
Q 2541 2772 2181 2772 
z
M 2919 506 
Q 2688 197 2409 53 
Q 2131 -91 1766 -91 
Q 1119 -91 703 423 
Q 288 938 288 1747 
Q 288 2556 703 3067 
Q 1119 3578 1766 3578 
Q 2131 3578 2409 3434 
Q 2688 3291 2919 2981 
L 2919 3500 
L 4044 3500 
L 4044 -1331 
L 2919 -1331 
L 2919 506 
z
" transform="scale(0.015625)"/>
      </defs>
      <use xlink:href="#DejaVuSans-Bold-46"/>
      <use xlink:href="#DejaVuSans-Bold-72" x="61.935547"/>
      <use xlink:href="#DejaVuSans-Bold-65" x="111.251953"/>
      <use xlink:href="#DejaVuSans-Bold-71" x="179.074219"/>
      <use xlink:href="#DejaVuSans-Bold-75" x="250.65625"/>
      <use xlink:href="#DejaVuSans-Bold-65" x="321.847656"/>
      <use xlink:href="#DejaVuSans-Bold-6e" x="389.669922"/>
      <use xlink:href="#DejaVuSans-Bold-63" x="460.861328"/>
      <use xlink:href="#DejaVuSans-Bold-69" x="520.138672"/>
      <use xlink:href="#DejaVuSans-Bold-65" x="554.416016"/>
      <use xlink:href="#DejaVuSans-Bold-73" x="622.238281"/>
     </g>
    </g>
   </g>
   <g id="patch_26">
    <path d="M 406.895625 251.740072 
L 406.895625 21.917584 
" style="fill: none; stroke: #000000; stroke-width: 0.8; stroke-linejoin: miter; stroke-linecap: square"/>
   </g>
   <g id="patch_27">
    <path d="M 406.895625 251.740072 
L 716.99976 251.740072 
" style="fill: none; stroke: #000000; stroke-width: 0.8; stroke-linejoin: miter; stroke-linecap: square"/>
   </g>
   <g id="text_32">
    <!-- (b) -->
    <g transform="translate(548.094021 15.917584) scale(0.17 -0.17)">
     <use xlink:href="#DejaVuSans-Bold-28"/>
     <use xlink:href="#DejaVuSans-Bold-62" x="45.703125"/>
     <use xlink:href="#DejaVuSans-Bold-29" x="117.285156"/>
    </g>
   </g>
  </g>
  <g id="axes_3">
   <g id="patch_28">
    <path d="M 540 172.8 
L 684 172.8 
L 684 86.4 
L 540 86.4 
z
" style="fill: #ffffff"/>
   </g>
   <g id="patch_29">
    <path d="M 546.545455 172.8 
L 552.382166 172.8 
L 552.382166 116.845714 
L 546.545455 116.845714 
z
" clip-path="url(#p531a5feb2f)" style="fill: #ffa500"/>
   </g>
   <g id="patch_30">
    <path d="M 554.883613 172.8 
L 560.720324 172.8 
L 560.720324 90.514286 
L 554.883613 90.514286 
z
" clip-path="url(#p531a5feb2f)" style="fill: #ffa500"/>
   </g>
   <g id="patch_31">
    <path d="M 563.221772 172.8 
L 569.058483 172.8 
L 569.058483 133.302857 
L 563.221772 133.302857 
z
" clip-path="url(#p531a5feb2f)" style="fill: #ffa500"/>
   </g>
   <g id="patch_32">
    <path d="M 571.559931 172.8 
L 577.396642 172.8 
L 577.396642 123.428571 
L 571.559931 123.428571 
z
" clip-path="url(#p531a5feb2f)" style="fill: #ffa500"/>
   </g>
   <g id="patch_33">
    <path d="M 579.898089 172.8 
L 585.7348 172.8 
L 585.7348 156.342857 
L 579.898089 156.342857 
z
" clip-path="url(#p531a5feb2f)" style="fill: #ffa500"/>
   </g>
   <g id="patch_34">
    <path d="M 588.236248 172.8 
L 594.072959 172.8 
L 594.072959 149.76 
L 588.236248 149.76 
z
" clip-path="url(#p531a5feb2f)" style="fill: #ffa500"/>
   </g>
   <g id="patch_35">
    <path d="M 596.574406 172.8 
L 602.411118 172.8 
L 602.411118 159.634286 
L 596.574406 159.634286 
z
" clip-path="url(#p531a5feb2f)" style="fill: #ffa500"/>
   </g>
   <g id="patch_36">
    <path d="M 604.912565 172.8 
L 610.749276 172.8 
L 610.749276 156.342857 
L 604.912565 156.342857 
z
" clip-path="url(#p531a5feb2f)" style="fill: #ffa500"/>
   </g>
   <g id="patch_37">
    <path d="M 613.250724 172.8 
L 619.087435 172.8 
L 619.087435 166.217143 
L 613.250724 166.217143 
z
" clip-path="url(#p531a5feb2f)" style="fill: #ffa500"/>
   </g>
   <g id="patch_38">
    <path d="M 621.588882 172.8 
L 627.425594 172.8 
L 627.425594 149.76 
L 621.588882 149.76 
z
" clip-path="url(#p531a5feb2f)" style="fill: #ffa500"/>
   </g>
   <g id="patch_39">
    <path d="M 629.927041 172.8 
L 635.763752 172.8 
L 635.763752 162.925714 
L 629.927041 162.925714 
z
" clip-path="url(#p531a5feb2f)" style="fill: #ffa500"/>
   </g>
   <g id="patch_40">
    <path d="M 638.2652 172.8 
L 644.101911 172.8 
L 644.101911 169.508571 
L 638.2652 169.508571 
z
" clip-path="url(#p531a5feb2f)" style="fill: #ffa500"/>
   </g>
   <g id="patch_41">
    <path d="M 646.603358 172.8 
L 652.440069 172.8 
L 652.440069 162.925714 
L 646.603358 162.925714 
z
" clip-path="url(#p531a5feb2f)" style="fill: #ffa500"/>
   </g>
   <g id="patch_42">
    <path d="M 654.941517 172.8 
L 660.778228 172.8 
L 660.778228 169.508571 
L 654.941517 169.508571 
z
" clip-path="url(#p531a5feb2f)" style="fill: #ffa500"/>
   </g>
   <g id="patch_43">
    <path d="M 663.279676 172.8 
L 669.116387 172.8 
L 669.116387 162.925714 
L 663.279676 162.925714 
z
" clip-path="url(#p531a5feb2f)" style="fill: #ffa500"/>
   </g>
   <g id="patch_44">
    <path d="M 671.617834 172.8 
L 677.454545 172.8 
L 677.454545 169.508571 
L 671.617834 169.508571 
z
" clip-path="url(#p531a5feb2f)" style="fill: #ffa500"/>
   </g>
   <g id="matplotlib.axis_5">
    <g id="xtick_13">
     <g id="line2d_28">
      <g>
       <use xlink:href="#m5fb7d191b9" x="541.125651" y="172.8" style="stroke: #000000; stroke-width: 0.8"/>
      </g>
     </g>
     <g id="text_33">
      <!-- 5 -->
      <g transform="translate(537.944401 187.398438) scale(0.1 -0.1)">
       <use xlink:href="#DejaVuSans-35"/>
      </g>
     </g>
    </g>
    <g id="xtick_14">
     <g id="line2d_29">
      <g>
       <use xlink:href="#m5fb7d191b9" x="582.816445" y="172.8" style="stroke: #000000; stroke-width: 0.8"/>
      </g>
     </g>
     <g id="text_34">
      <!-- 10 -->
      <g transform="translate(576.453945 187.398438) scale(0.1 -0.1)">
       <use xlink:href="#DejaVuSans-31"/>
       <use xlink:href="#DejaVuSans-30" x="63.623047"/>
      </g>
     </g>
    </g>
    <g id="xtick_15">
     <g id="line2d_30">
      <g>
       <use xlink:href="#m5fb7d191b9" x="624.507238" y="172.8" style="stroke: #000000; stroke-width: 0.8"/>
      </g>
     </g>
     <g id="text_35">
      <!-- 15 -->
      <g transform="translate(618.144738 187.398438) scale(0.1 -0.1)">
       <use xlink:href="#DejaVuSans-31"/>
       <use xlink:href="#DejaVuSans-35" x="63.623047"/>
      </g>
     </g>
    </g>
    <g id="xtick_16">
     <g id="line2d_31">
      <g>
       <use xlink:href="#m5fb7d191b9" x="666.198031" y="172.8" style="stroke: #000000; stroke-width: 0.8"/>
      </g>
     </g>
     <g id="text_36">
      <!-- 20 -->
      <g transform="translate(659.835531 187.398438) scale(0.1 -0.1)">
       <use xlink:href="#DejaVuSans-32"/>
       <use xlink:href="#DejaVuSans-30" x="63.623047"/>
      </g>
     </g>
    </g>
   </g>
   <g id="matplotlib.axis_6">
    <g id="ytick_15">
     <g id="line2d_32">
      <g>
       <use xlink:href="#m59da4c6ccd" x="540" y="172.8" style="stroke: #000000; stroke-width: 0.8"/>
      </g>
     </g>
     <g id="text_37">
      <!-- 0 -->
      <g transform="translate(526.6375 176.599219) scale(0.1 -0.1)">
       <use xlink:href="#DejaVuSans-30"/>
      </g>
     </g>
    </g>
    <g id="ytick_16">
     <g id="line2d_33">
      <g>
       <use xlink:href="#m59da4c6ccd" x="540" y="139.885714" style="stroke: #000000; stroke-width: 0.8"/>
      </g>
     </g>
     <g id="text_38">
      <!-- 10 -->
      <g transform="translate(520.275 143.684933) scale(0.1 -0.1)">
       <use xlink:href="#DejaVuSans-31"/>
       <use xlink:href="#DejaVuSans-30" x="63.623047"/>
      </g>
     </g>
    </g>
    <g id="ytick_17">
     <g id="line2d_34">
      <g>
       <use xlink:href="#m59da4c6ccd" x="540" y="106.971429" style="stroke: #000000; stroke-width: 0.8"/>
      </g>
     </g>
     <g id="text_39">
      <!-- 20 -->
      <g transform="translate(520.275 110.770647) scale(0.1 -0.1)">
       <use xlink:href="#DejaVuSans-32"/>
       <use xlink:href="#DejaVuSans-30" x="63.623047"/>
      </g>
     </g>
    </g>
   </g>
   <g id="patch_45">
    <path d="M 540 172.8 
L 540 86.4 
" style="fill: none; stroke: #000000; stroke-width: 0.8; stroke-linejoin: miter; stroke-linecap: square"/>
   </g>
   <g id="patch_46">
    <path d="M 540 172.8 
L 684 172.8 
" style="fill: none; stroke: #000000; stroke-width: 0.8; stroke-linejoin: miter; stroke-linecap: square"/>
   </g>
  </g>
 </g>
 <defs>
  <clipPath id="p99305c2f4c">
   <rect x="42.484928" y="21.917584" width="310.104135" height="229.822489"/>
  </clipPath>
  <clipPath id="p115ce41557">
   <rect x="406.895625" y="21.917584" width="310.104135" height="229.822489"/>
  </clipPath>
  <clipPath id="p531a5feb2f">
   <rect x="540" y="86.4" width="144" height="86.4"/>
  </clipPath>
 </defs>
</svg>
